<svg xmlns="http://www.w3.org/2000/svg" width="119" height="96"><path fill="#38387c" d="M39.82058257382431,79.57618125555088 a2.222362800301552,2.222362800301552 0 1 0 0.1559552842316881,3.327046063609341 l0.3768919368932463,0.4418733053231164 a2.891670895129212,2.891670895129212 0 0 1 -1.9039540949951896,0.7407876001005187 a2.7747044319554464,2.7747044319554464 0 1 1 0,-5.549408863910893 a2.6837305161536307,2.6837305161536307 0 0 1 1.696013716019606,0.5848323158688302 zm4.2237889479415465,-0.9487279790761016 h2.7812025687984336 V79.20578745550063 H44.64220011132065 v1.592043526531814 H46.78658526950636 v0.552341631653896 H44.64220011132065 v2.1053963371277864 h2.1833739792436297 v0.552341631653896 H44.044371521765854 zm6.816545548293357,0 h0.214438515818571 l3.9703616110650537,4.152309442668689 v-4.152309442668689 h0.5978285895548042 v5.3609628954642705 h-0.22743478950454513 L51.45874565961401,79.85560113979932 v4.132815032139729 h-0.5978285895548042 zm10.397018948779191,5.3609628954642705 h-0.5978285895548042 V79.20578745550063 h-1.364608737027269 v-0.552341631653896 h3.340042337295315 V79.20578745550063 h-1.3776050107132431 zm7.700292158939589,0 l-1.299627368597399,-2.3913143582192147 H66.93080948276605 v2.3913143582192147 H66.28099579846734 v-5.3609628954642705 h1.0591963054068803 c1.013709347505971,0 1.9494410528960988,0.27292174740545416 1.9494410528960988,1.4815752002010352 a1.345114326498308,1.345114326498308 0 0 1 -1.0462000317209064,1.371106873870256 l1.3841031475562298,2.50828082139298 zm-1.592043526531814,-4.808621263810376 H66.93080948276605 v1.9039540949951896 h0.4678658526950638 c0.6498136842987003,0 1.3581106001842818,-0.10397018948779199 1.3581106001842818,-0.9357317053901276 S68.08747784081773,79.20578745550063 67.36618465124619,79.20578745550063 zM74.21522088375447,82.45485587699412 l-0.6498136842987003,1.5205640212589562 h-0.6498136842987003 l2.3588236740042796,-5.3609628954642705 h0.22743478950454513 l2.293842305574409,5.3609628954642705 h-0.6498136842987003 l-0.6498136842987003,-1.5205640212589562 zm1.1566683580516852,-2.7032249266825907 l-0.9162372948611665,2.1443851581857083 h1.8129801791933717 zm6.589110758788813,3.671447316287652 h1.4815752002010352 v0.552341631653896 h-2.072905652912851 v-5.3609628954642705 h0.5978285895548042 zM1.0007130738199967,95.57459416298487 H0 V86.84759638285333 h1.6635230318046705 a3.684443589973626,3.684443589973626 0 0 1 2.1638795687146692,0.4613677158520771 a2.404310631905188,2.404310631905188 0 0 1 0.9812186632910357,1.9884298739540207 a2.449797589806097,2.449797589806097 0 0 1 -0.8317615159023353,1.8779615476232414 a3.1450982320057053,3.1450982320057053 0 0 1 -2.072905652912851,0.5783341790258425 H1.0007130738199967 zm0,-4.724145484851545 H1.8844596844662287 c1.0786907159358412,0 1.9884298739540207,-0.32490684214935056 1.9884298739540207,-1.5725491160028526 c0,-1.4230919686141519 -1.1436720843657109,-1.5270621581019435 -2.280846031888435,-1.5270621581019435 h-0.5913304527118166 zm10.397018948779191,2.2418572108305135 L10.397018948779191,95.57459416298487 H9.311830096000362 l3.8403988742053143,-8.726997780131533 h0.3703938000502591 l3.736428684717522,8.726997780131533 H16.186858875880603 l-1.0332037580349323,-2.4757901371780453 zm1.8844596844662287,-4.399238642702195 L11.820110917393341,92.20206114147462 h2.9501541267160953 zm14.107455086124766,6.87502877988024 l-2.072905652912851,-3.8988821057921967 h-1.299627368597399 v3.8988821057921967 h-0.9747205264480496 V86.84759638285333 h1.7220062633915547 c1.6570248949616841,0 3.1970833267496013,0.4418733053231164 3.1970833267496013,2.410808768748175 a2.1963702529296043,2.1963702529296043 0 0 1 -1.702511852862593,2.2353590739875258 L28.591802109142776,95.57459416298487 zm-2.5992547371947987,-7.797764211584394 H24.082095140109804 v3.099611274104796 h0.7667801474724656 c1.0981851264648024,0 2.209366526615578,-0.1754496947606491 2.209366526615578,-1.5270621581019435 S25.99254737194798,87.75083740402853 24.829380877053307,87.75083740402853 zm12.073538254269835,7.797764211584394 H35.93469674171807 v-7.797764211584394 H33.71233394141653 v-0.903241021175193 h5.438940537580114 v0.903241021175193 H36.902919131323145 zm8.239637516907509,-8.726997780131533 H45.48695790090896 l6.459148021929073,6.758062316706474 v-6.758062316706474 h0.9747205264480496 v8.726997780131533 h-0.3703938000502591 L46.13677158520767,88.84902253049333 v6.7255716324915396 h-0.9747205264480496 zm14.458354475646063,0 h4.548695790090896 v0.903241021175193 h-3.554480853113886 v2.5992547371947987 h3.4505106636260945 v0.903241021175193 h-3.4505106636260945 v3.4245181162541463 h3.554480853113886 v0.903241021175193 h-4.548695790090896 zm15.39408618103619,8.726997780131533 l-2.072905652912851,-3.8988821057921967 h-1.299627368597399 v3.8988821057921967 h-0.9747205264480496 V86.84759638285333 h1.7220062633915547 c1.6570248949616841,0 3.1970833267496013,0.4418733053231164 3.1970833267496013,2.410808768748175 a2.1963702529296043,2.1963702529296043 0 0 1 -1.702511852862593,2.2353590739875258 l2.2548534845164876,4.08732807423882 zm-2.5992547371947987,-7.797764211584394 h-0.753783873786492 v3.099611274104796 h0.7602820106294794 c1.0981851264648024,0 2.209366526615578,-0.1754496947606491 2.209366526615578,-1.5270621581019435 S73.57190533629876,87.75083740402853 72.40224070456111,87.75083740402853 zm13.795544517661389,0.7992708316874008 a1.5985416633748015,1.5985416633748015 0 0 0 -1.507567747572983,-0.9487279790761016 a1.3841031475562298,1.3841031475562298 0 0 0 -1.4490845159861,1.3516124633412954 c0,0.753783873786492 0.7732782843154523,1.0981851264648024 1.364608737027269,1.364608737027269 l0.5783341790258425,0.2534273368764929 c1.1306758106797372,0.5003565369099985 2.0924000634418127,1.065694442249867 2.0924000634418127,2.456295726649084 a2.7552100214264863,2.7552100214264863 0 0 1 -5.4649330849520625,0.4418733053231164 l0.9487279790761016,-0.26642361056246705 a1.7999839055073976,1.7999839055073976 0 0 0 1.747998810763503,1.6180360739037618 a1.7544969476064889,1.7544969476064889 0 0 0 1.7934857686644106,-1.702511852862593 c0,-1.0202074843489584 -0.7862745580014268,-1.3776050107132431 -1.611537937060775,-1.7350025370775275 l-0.5328472211249342,-0.23393292634753193 c-1.0267056211919452,-0.4483714421661028 -1.8974559581522028,-0.9812186632910357 -1.8974559581522028,-2.2353590739875258 a2.287344168731422,2.287344168731422 0 0 1 2.4432994529631102,-2.222362800301552 a2.501782684549993,2.501782684549993 0 0 1 2.2548534845164876,1.3516124633412954 zm12.859812812271262,1.8389727265653195 v-3.541484579427912 h0.9747205264480496 v8.726997780131533 h-0.9747205264480496 V91.29232198345643 h-4.4707181479750515 v4.282272179528429 h-0.9747205264480496 V86.84759638285333 h0.9747205264480496 v3.541484579427912 zm8.636023864329715,5.198509474389596 h-0.9747205264480496 V86.84759638285333 h0.9747205264480496 zm7.602820106294783,0 h-0.9747205264480496 V86.84759638285333 h1.6635230318046705 a3.677945453130639,3.677945453130639 0 0 1 2.1638795687146692,0.4613677158520771 a2.404310631905188,2.404310631905188 0 0 1 0.9812186632910357,1.9884298739540207 a2.449797589806097,2.449797589806097 0 0 1 -0.8317615159023353,1.8779615476232414 a3.1450982320057053,3.1450982320057053 0 0 1 -2.072905652912851,0.5783341790258425 h-0.9357317053901276 zm0,-4.724145484851545 h0.8772484738032452 c1.0786907159358412,0 1.9884298739540207,-0.32490684214935056 1.9884298739540207,-1.5725491160028526 c0,-1.4230919686141519 -1.1436720843657109,-1.5270621581019435 -2.280846031888435,-1.5270621581019435 h-0.5913304527118166 zm3.8403988742053143,-10.104602790844776 h-32.49068421493497 v0.8252633790593481 h32.49068421493497 zm-86.59417156964469,0 H0 v0.8252633790593481 h32.49068421493497 zM105.55573487748075,5.211503224407718 c-3.528488305741938,-1.1826609054236332 -8.330611432709327,-1.747998810763503 -16.934144612824106,-1.267136684382464 a86.63316039070261,86.63316039070261 0 0 0 -44.22631935336948,16.895155791766186 A85.81439514848626,85.81439514848626 0 0 0 28.533318877555892,35.817727754876465 c-1.4360882423001262,1.6050398002177881 -4.548695790090896,2.3133367161033704 -5.724858558671542,2.6902286529966157 a3.9573653373790805,3.9573653373790805 0 0 0 -2.5992547371947987,2.7162212003685644 l-4.1848001268836255,13.464139538669052 L15.595528423168787,55.715022768102635 C18.305251486694367,50.4385356515972 32.49068421493497,25.141288921848826 58.093343376303736,14.620805373052884 c3.4765032109980423,-1.429590105457139 10.280052485605426,-1.0981851264648024 13.769551970289442,-1.0981851264648024 s5.289483390191414,-0.7017987790425966 8.980425117008027,-1.299627368597399 c7.979712043188029,-1.1956571791096071 17.27204772865943,-1.299627368597399 24.1340802348537,0.4418733053231164 c0,0 2.384816221376227,0.43537516848012897 1.3906012843992173,3.0671205898898615 c-1.4685789265150606,3.8988821057921967 -4.204294537412585,9.799190359224388 -11.599174264731786,12.664868706981652 c-12.34646000167529,4.789126853281416 -19.208492507869554,3.788413779461418 -36.571514152330806,10.065613969786856 s-33.84229667827627,21.846736066122276 -38.429981289425086,23.39329263475318 c-3.2165777372785618,1.0721925790928544 -5.451936811266089,0.31840870530636345 -5.373959169150244,-2.4952845477070063 c-0.22093665266155793,1.8454708634083068 0,4.158807579511676 1.7869876318214235,5.198509474389596 c2.5992547371947987,1.4945714738870088 7.147950527285694,-0.6498136842987003 8.934938159107118,-1.6570248949616841 c5.1530225164886865,-2.891670895129212 13.802042654504376,-5.120531832273751 16.06339427586385,-5.1530225164886865 s1.364608737027269,1.9494410528960988 1.364608737027269,1.9494410528960988 a9.935651232927114,9.935651232927114 0 0 1 -2.9956410846170045,3.8988821057921967 c-1.4880733370440218,1.1046832633077892 -6.719073495648552,1.8649652739372675 -9.870669864497243,2.5992547371947987 c-3.379031158353237,0.7992708316874008 -2.397812495062201,3.2490684214934973 -1.4685789265150606,3.5869715373288207 a8.226641243221534,8.226641243221534 0 0 0 5.438940537580114,0.3638956632072724 c6.420159200871151,-1.592043526531814 9.682223896050623,-7.381883453633225 10.676438833027632,-8.980425117008027 s4.3927405058592095,-2.794198842484408 4.3927405058592095,-2.794198842484408 L69.06219836726578,51.91361271495525 c8.58403876958582,-2.696726789839603 28.240902719621477,-9.383309601273218 35.73975263642847,-17.36302164446125 c4.210792674255573,-4.490212558504013 5.926300800804139,-10.780409022515425 6.6216014430037475,-16.050398002177875 c0,0.04548695790090903 0,0.07147950527285693 0,0.07147950527285693 a63.79220938760333,63.79220938760333 0 0 0 0.474363989538051,-9.097391580181792 v0 c0.1299627368597399,-5.809334337630373 -9.584751843405817,-9.474283517075039 -22.256118687230455,-9.097391580181792 c-18.36373471828125,0.6498136842987003 -34.24518116254146,10.11759906453075 -45.2205342903465,18.981057718365008 c11.04683263307789,-8.239637516907509 25.22576722447551,-15.355097359978268 43.84292927963325,-17.116092444427743 a51.67318417543258,51.67318417543258 0 0 1 11.488705938401006,0.4418733053231164 C104.07415967727971,3.4700025504872034 105.55573487748075,5.211503224407718 105.55573487748075,5.211503224407718 z" /></svg>
