<svg id="Слой_1" data-name="Слой 1" xmlns="http://www.w3.org/2000/svg" viewBox="0 0 293.84 48.21"><defs><style>.cls-1{fill:#35357f;}</style></defs><title>gm</title><path class="cls-1" d="M20.12,40l-20-20L20.29,0l20,20Zm0-14.37c.61-.14,1-.26,1.39-.32,1.38-.23,2.1.4,2.12,1.81a2.6,2.6,0,0,1-1.77,2.74,8.34,8.34,0,0,1-3,.4,4.75,4.75,0,0,1-.55-9.44,3.91,3.91,0,0,1,.65-.11c.57,0,.74-.3.73-.85,0-1.8,0-3.6,0-5.4,0-.66-.19-.92-.88-.84-4.8.55-8.81,3.89-8.46,9.22.23,3.56,1.79,6.34,5.12,7.8a9,9,0,0,0,10-1.31,1.45,1.45,0,0,0,.5-.94q.07-2.46,0-4.93a.94.94,0,0,0-.66-.64c-1.48-.06-3-.06-4.45,0a.91.91,0,0,0-.68.53A19.76,19.76,0,0,0,20.11,25.66Zm2.69-3.11c3.63-4.35,3.58-14.36,0-17.14A15,15,0,0,0,22.8,22.55Z"/><path class="cls-1" d="M37.82,25.6l2.49,2.59-20.11,20L0,28l2.3-2.17c.5-.47.74,0,1,.29Q7.2,30,11.08,33.93l8.31,8.32c.88.89.89.88,1.75,0l15.95-16C37.31,26.08,37.54,25.87,37.82,25.6Z"/><path class="cls-1" d="M168.48,24.85c.26-.57.43-.9.56-1.23,1.57-3.86,3.15-7.72,4.69-11.6a1.06,1.06,0,0,1,1.18-.8c1.33,0,2.66,0,4,0,.27,0,.54.26.81.4-.21.18-.4.45-.64.52-1.87.57-1.88.56-1.88,2.53,0,4,0,7.9,0,11.85,0,.9.19,1.46,1.2,1.48a2.31,2.31,0,0,1,.92.22c.21.1.35.35.53.53-.21.14-.41.38-.62.39-1.48,0-3,0-4.46,0h-2.34c-.29-.62-.1-.85.47-1,1.9-.47,1.89-.49,1.9-2.5q0-5.59,0-11.19a4.74,4.74,0,0,0-.14-.69c-.24.49-.39.75-.5,1-1.83,4.51-3.65,9-5.49,13.52a5.82,5.82,0,0,1-.7,1,4.93,4.93,0,0,1-.73-1c-1.8-4.35-3.58-8.7-5.36-13.06a2,2,0,0,0-.62-.89,4.37,4.37,0,0,0-.1.65c0,3.92,0,7.84,0,11.76A1,1,0,0,0,162,28c.49.12,1.48-.16,1.35.74s-1,.35-1.51.38c-1.36.07-2.72,0-4.08,0-.24,0-.47-.26-.7-.4.21-.18.39-.47.63-.54,2-.55,2-.54,2-2.64,0-4,0-7.9,0-11.85,0-.93-.29-1.29-1.17-1.43-.46-.07-1.28-.47-1.26-.61.14-.84.89-.41,1.38-.44,1.1-.07,2.21,0,3.32,0a1.17,1.17,0,0,1,1.32.9c1.55,3.94,3.15,7.86,4.73,11.78C168.12,24.13,168.24,24.34,168.48,24.85Z"/><path class="cls-1" d="M205.2,24.89c.34-.78.57-1.28.78-1.78,1.5-3.69,3-7.37,4.48-11.06.23-.57.5-.85,1.16-.83,1.36.05,2.72,0,4.08,0,.23,0,.46.2.68.31-.18.2-.33.49-.55.58-.58.23-1.49.19-1.72.58a4.52,4.52,0,0,0-.19,2.11c0,4,0,7.9,0,11.85,0,.87.25,1.29,1.14,1.33a3.89,3.89,0,0,1,1.2.28.6.6,0,0,1,.29.48.56.56,0,0,1-.39.38q-3.32,0-6.64,0c-.16,0-.45-.23-.44-.33a1.28,1.28,0,0,1,.32-.58c0-.06.18,0,.27-.07,1.85-.47,1.85-.47,1.85-2.35q0-5.4,0-10.81a1.55,1.55,0,0,0-.26-.94c-.13.26-.28.51-.39.78-1.83,4.54-3.66,9.08-5.51,13.61a4.31,4.31,0,0,1-.7.91,4.7,4.7,0,0,1-.68-.92c-1.8-4.35-3.57-8.71-5.35-13.06a2.2,2.2,0,0,0-.69-1,6.39,6.39,0,0,0-.08.73c0,3.89,0,7.78,0,11.66,0,.81.3,1.09,1,1.24.47.1,1.32-.13,1.25.74,0,.17-.87.36-1.34.38-1.42.05-2.84,0-4.27,0-.22,0-.44-.22-.66-.34.18-.21.31-.54.53-.61,2-.62,2-.6,2-2.69,0-4,0-7.9,0-11.85,0-.86-.26-1.25-1.12-1.38-.49-.08-1.37-.51-1.34-.64.16-.82.9-.38,1.39-.42,1.07-.07,2.15,0,3.22,0a1.28,1.28,0,0,1,1.47,1c1.5,3.85,3.07,7.68,4.62,11.52C204.81,24,204.95,24.31,205.2,24.89Z"/><path class="cls-1" d="M268.82,12.66c-.7-.2-1.23-.31-1.72-.51-.18-.07-.28-.34-.42-.52.18-.13.35-.36.53-.37q2.94,0,5.88,0c.19,0,.38.23.56.35-.16.18-.32.37-.5.54s-.12,0-.18.06c-1.81.52-1.81.52-1.81,2.37,0,4,0,8,0,12,0,.88.16,1.4,1.14,1.42a2.41,2.41,0,0,1,1,.26.79.79,0,0,1,.33.56c0,.09-.29.32-.45.32q-3,0-6.07,0c-.17,0-.48-.25-.48-.38s.23-.37.37-.55c0,0,.06,0,.09,0,1.67-.62,1.67-.62,1.67-2.45q0-4.22,0-8.44c0-.31,0-.62,0-1.17a5.76,5.76,0,0,0-.68.56q-3.8,4.61-7.57,9.24c-.86,1.06-.6,1.8.73,2.14a2,2,0,0,1,.63.19.7.7,0,0,1,.3.5.57.57,0,0,1-.4.39q-3.13,0-6.26,0c-.13,0-.36-.21-.36-.32a.87.87,0,0,1,.25-.54c.09-.1.29-.09.45-.13,1.77-.45,1.77-.45,1.77-2.32,0-4,0-8.09,0-12.14,0-1-.32-1.31-1.19-1.39a2.69,2.69,0,0,1-.92-.22c-.18-.09-.28-.33-.42-.51.16-.12.31-.34.47-.34q3,0,6.07,0c.17,0,.34.26.51.41-.15.17-.27.41-.45.49-1.64.67-1.64.66-1.64,2.48q0,3.94,0,7.87c0,.37,0,.73.06,1.37.37-.36.57-.52.73-.71,2.46-3,4.93-6,7.36-9A5.87,5.87,0,0,0,268.82,12.66Z"/><path class="cls-1" d="M252.24,27.78c0,2,0,3.94,0,5.83,0,.19-.23.37-.35.55-.2-.15-.52-.25-.58-.44-.39-1.23-.76-2.48-1.08-3.73a.92.92,0,0,0-1.05-.81q-5.83,0-11.66,0a1,1,0,0,0-1.09.88c-.28,1.16-.64,2.31-1,3.45-.09.26-.4.44-.61.66a2.45,2.45,0,0,1-.37-.83c0-1.58,0-3.16,0-4.74,0-.6.18-.93.81-.81,1.17.23,1.76-.42,2.31-1.33a27,27,0,0,0,3.4-11.23c.07-.63.1-1.26.18-1.88s-.11-.82-.69-.88a10.77,10.77,0,0,1-1.76-.35c-.17,0-.27-.33-.41-.5a2.53,2.53,0,0,1,.48-.34,1.29,1.29,0,0,1,.47,0c3.85,0,7.71,0,11.56,0a2.82,2.82,0,0,1,.92.37c-.26.21-.49.52-.79.6-1.68.45-1.68.43-1.68,2.2,0,4.07,0,8.15,0,12.22,0,.84.2,1.24,1.11,1.14A19.17,19.17,0,0,1,252.24,27.78Zm-13.59,0c2.49,0,4.76,0,7,0,.89,0,1.12-.3,1.11-1.15,0-3.92,0-7.84,0-11.76,0-2.37,0-2.37-2.32-2.37-1.77,0-1.76,0-1.89,1.78a32.12,32.12,0,0,1-2.69,11.08C239.54,26.12,239.14,26.83,238.65,27.78Z"/><path class="cls-1" d="M108.75,11.23c2.69,0,5.37,0,8.06,0,.3,0,.59.27.89.42a2.71,2.71,0,0,1-.74.53c-1.72.47-1.72.46-1.72,2.26,0,4.08,0,8.16,0,12.23,0,.86.21,1.26,1.11,1.37.48.06,1.33.52,1.3.67-.16.9-1,.41-1.47.44-1.55.07-3.1,0-4.65,0-.3,0-.59-.27-.89-.42.24-.2.44-.5.71-.58,1.43-.45,1.43-.43,1.43-2q0-6.16,0-12.33c0-1.3,0-1.3-1.33-1.3-1.9,0-3.79,0-5.69,0-.69,0-1,.22-.95.93q0,6.73,0,13.47c0,.67.23,1,.89,1.07a1,1,0,0,1,.45.14c.27.2.5.43.75.65a2.86,2.86,0,0,1-.92.37q-2.65.05-5.31,0c-.28,0-.55-.25-.82-.38.23-.2.43-.52.69-.59,1.76-.45,1.77-.44,1.77-2.23,0-4.11,0-8.22,0-12.33,0-.9-.31-1.22-1.14-1.35-.48-.08-1.29.14-1.26-.71,0-.13.88-.34,1.36-.34C103.76,11.22,106.26,11.23,108.75,11.23Z"/><path class="cls-1" d="M155.1,19.34c.07,5.15-2.34,8.78-6.25,9.84-7,1.91-13.14-3.43-11.64-11.15a8.22,8.22,0,0,1,5.84-6.74c3.33-1,6.53-.68,9.23,1.75A8.51,8.51,0,0,1,155.1,19.34Zm-2.63,1.34a10.49,10.49,0,0,0-1.89-6,5.7,5.7,0,0,0-9.68.35A10,10,0,0,0,142,26.11a5.79,5.79,0,0,0,5.82,1.9,5.42,5.42,0,0,0,4.08-4.18A27.62,27.62,0,0,0,152.47,20.68Z"/><path class="cls-1" d="M225.74,29.19c-1.93,0-3.85,0-5.78,0a2.47,2.47,0,0,1-.83-.36c.22-.21.41-.53.67-.6,1.92-.54,1.92-.52,1.92-2.5,0-4,0-8,0-11.94,0-1-.34-1.37-1.23-1.45a3,3,0,0,1-.92-.21c-.19-.08-.31-.31-.46-.48a3.06,3.06,0,0,1,.53-.39,1.2,1.2,0,0,1,.47,0c3.66,0,7.33,0,11,0,.82,0,1.15.21,1.09,1.06s0,1.9,0,2.84c0,.21-.25.42-.39.62-.2-.16-.49-.27-.58-.47a9.91,9.91,0,0,1-.6-1.69,1.18,1.18,0,0,0-1.4-1c-1.35.07-2.72.05-4.07,0-.76,0-1,.27-1,1q.05,2.37,0,4.74c0,.68.18,1,.9.94a7,7,0,0,1,.76,0c1.9,0,1.89,0,2.51-1.82.08-.23.39-.39.59-.58.13.24.38.47.38.72q.05,2.37,0,4.74c0,.24-.26.47-.4.7-.2-.19-.52-.34-.59-.57-.63-1.9-.61-1.91-2.61-1.91-1.51,0-1.51,0-1.51,1.47,0,1.64,0,3.29,0,4.93,0,.65.2.89.87.88q2.42-.05,4.83,0a1,1,0,0,0,1.08-.81,15.86,15.86,0,0,1,.67-1.87c.09-.2.39-.31.6-.47.13.21.37.41.37.63,0,1,0,2,0,2.94,0,.73-.21,1-1,1-2,0-3.92,0-5.88,0Z"/><path class="cls-1" d="M120.81,29.18c-.2-.77.2-.91.72-1,1.69-.37,1.69-.39,1.69-2.11q0-6.06,0-12.13c0-1.36,0-1.33-1.33-1.63-.47-.11-1.25,0-1.13-.88.07-.06.11-.14.16-.14,3.12,0,6.26-.09,9.36.16s4.54,2.27,4.39,5.23a4.35,4.35,0,0,1-2.06,3.55,6.69,6.69,0,0,1-5.38,1.22,13.19,13.19,0,0,0-1.39-.17c0,.44-.09.8-.09,1.17,0,1.52,0,3,0,4.55,0,.63.23.93.85,1a8,8,0,0,1,1.48.27.76.76,0,0,1,.38.53c0,.1-.26.37-.4.38C125.64,29.19,123.22,29.18,120.81,29.18Zm4.94-12.83q0,.57,0,1.14c0,3.08.11,3.17,3.18,2.52a3.41,3.41,0,0,0,3-3.69,3.2,3.2,0,0,0-2.79-3.49,20.72,20.72,0,0,0-2.34-.28c-.72-.08-1,.2-1,1C125.78,14.46,125.75,15.41,125.75,16.35Z"/><path class="cls-1" d="M78.59,27.76c-.63-1.65-1.17-3.16-1.79-4.64a1.14,1.14,0,0,0-.87-.51c-1.45-.05-2.91,0-4.36,0a1.09,1.09,0,0,0-.84.42c-.67,1.53-1.27,3.08-1.94,4.77.64.16,1.18.26,1.69.44.21.08.35.35.53.53-.2.14-.4.39-.61.4q-2.46.05-4.93,0c-.2,0-.4-.26-.61-.39.16-.19.33-.54.49-.54,1.73,0,2.23-1.17,2.76-2.56,1.81-4.75,3.74-9.46,5.65-14.17.13-.32.51-.54.77-.8a3.52,3.52,0,0,1,.7.86C77.13,16.64,79,21.7,80.84,26.79c.27.76.64,1.18,1.43,1.24a1.51,1.51,0,0,1,.73.2,3.09,3.09,0,0,1,.54.65c-.23.11-.45.31-.68.31-2,0-3.92,0-5.88,0-.23,0-.46-.26-.69-.4.21-.19.38-.45.63-.55A17.42,17.42,0,0,1,78.59,27.76Zm-2.4-6.52L74,15.3h-.3l-2.33,6Z"/><path class="cls-1" d="M286.76,29.19c-.33-.75,0-.93.59-1s.91-.23,1.52-.39c-.4-1.09-.76-2.11-1.15-3.13-.78-2.06-.79-2.06-3-2.06-.92,0-1.83,0-2.75,0a1,1,0,0,0-1.14.75c-.47,1.27-1,2.53-1.5,3.79-.23.55-.11.83.51.9a4,4,0,0,1,1.1.29.61.61,0,0,1,.3.49.57.57,0,0,1-.41.37q-2.61,0-5.22,0a.56.56,0,0,1-.42-.35c0-.16.15-.36.27-.52a.37.37,0,0,1,.27-.08c1.62,0,2.13-1.1,2.64-2.42,1.82-4.75,3.74-9.46,5.65-14.17a3.8,3.8,0,0,1,.78-.91,3.74,3.74,0,0,1,.76.92c1.86,5,3.71,10,5.51,15,.29.81.66,1.32,1.55,1.38a2.46,2.46,0,0,1,.91.24.64.64,0,0,1,.29.5.56.56,0,0,1-.4.38C291.2,29.2,289,29.19,286.76,29.19Zm-5.1-8h4.81l-2.19-5.95-.3,0Z"/><path class="cls-1" d="M93.72,19.29l1,.5A4.8,4.8,0,0,1,95,28.28a10.24,10.24,0,0,1-7.6,1c-2.38-.47-1.84-.38-1.9-2.35a14.47,14.47,0,0,1,0-1.8c0-.22.26-.41.4-.62.21.15.52.26.61.46.3.66.45,1.39.78,2,.19.37.61.83,1,.87a11.42,11.42,0,0,0,3.45,0c2-.42,3-2.17,2.8-4.32a3.74,3.74,0,0,0-3.69-3.3c-.82,0-1.64,0-2.54,0V18.71c.44,0,.86,0,1.29.08,2.22.22,3.95-1,4.16-2.92A3.33,3.33,0,0,0,90,12.17a2.73,2.73,0,0,0-2.84,2.34c-.1.49-.1,1.4-1,1.2-.23-.05-.3-.93-.38-1.45a7.56,7.56,0,0,1,0-1.14c0-1.68,0-1.76,1.62-2a26.77,26.77,0,0,1,4.52-.23,4.55,4.55,0,0,1,4.3,3.15c.5,1.93-.16,3.47-2.08,4.86C94,19,93.94,19.09,93.72,19.29Z"/><path class="cls-1" d="M60.7,29.18c-2.33,0-4.66,0-7,0a.56.56,0,0,1-.39-.38.61.61,0,0,1,.31-.48A8.11,8.11,0,0,1,55,28a.76.76,0,0,0,.75-.88c0-4.61,0-9.23,0-13.84a1.25,1.25,0,0,0-.65-.82,11.42,11.42,0,0,0-1.27-.33c-.2-.08-.34-.34-.5-.52a3.67,3.67,0,0,1,.57-.34,1.38,1.38,0,0,1,.47,0c3.64,0,7.27,0,10.91,0,.85,0,1.11.26,1.05,1.08s0,1.9,0,2.84c0,.21-.25.41-.39.61-.21-.15-.52-.25-.61-.45-.29-.66-.42-1.4-.75-2a1.36,1.36,0,0,0-.94-.67c-1.48-.07-3,0-4.46,0-.61,0-.83.25-.83.85q0,6.83,0,13.66a.8.8,0,0,0,.82.93,3.53,3.53,0,0,1,1.1.25,3,3,0,0,1,.68.65Z"/><path class="cls-1" d="M186.88,21.31c1,0,2,0,3,0,.49,0,.87.14.72.67a1,1,0,0,1-.7.58q-3.06.07-6.13,0c-.24,0-.59-.36-.67-.62-.15-.47.17-.65.64-.64C184.8,21.32,185.84,21.31,186.88,21.31Z"/><path class="cls-1" d="M22.86,6.62c1.54,3.06,2.5,6,1.78,9.54a11.61,11.61,0,0,0-1.78-6.52,12.53,12.53,0,0,0-1.93,6A14.12,14.12,0,0,1,22.86,6.62Z"/><path class="cls-1" d="M22.83,21.12a5.61,5.61,0,0,1,0-4.68A5.21,5.21,0,0,1,22.83,21.12Z"/></svg>