<svg xmlns="http://www.w3.org/2000/svg" width="18" height="15"><rect id="backgroundrect" width="100%" height="100%" x="0" y="0" fill="none" stroke="none"/><defs><style>.cls-1{fill:#545454;}</style></defs><title>logos&amp;amp;other</title><g class="currentLayer" style=""><title>Layer 1</title><g id="Слой_3" data-name="Слой 3" class=""><path class="cls-1" d="M12.714703850746155,2.2888183615066282e-7 a3.9,3.9 0 0 0 -3.75,3.94 v0.51 C5.2147038507461545,3.760000228881836 3.3747038507461546,2.760000228881836 1.3347038507461546,0.6400002288818358 c-1.21,2.35 0.13,4.32 1.59,5.41 a3.46,3.46 0 0 1 -2.45,-0.7000000000000001 c-0.06000000000000001,0 -0.13,0 -0.1,0.06000000000000001 a5.91,5.91 0 0 0 3.8200000000000003,3.8200000000000003 c-1.3,0 -2.16,0.19000000000000003 -3.08,-0.38000000000000006 c-0.06000000000000001,0 -0.13,0 -0.1,0.06000000000000001 c0.7000000000000001,1.94 2.1,2.54 4.13,2.54 a7.88,7.88 0 0 1 -5,1.59 a0.1,0.1 0 0 0 -0.06000000000000001,0.19000000000000003 c1,0.79 3.31,1.4 6.61,1.4 c5.44,0 9.86,-4.83 9.86,-10.81 V3.500000228881836 a2.7800000000000002,2.7800000000000002 0 0 0 1.59,-1.84 a0.07,0.07 0 0 0 -0.06000000000000001,-0.06000000000000001 l-1.81,0.6400000000000001 a0.06000000000000001,0.06000000000000001 0 0 1 0,-0.1 a4.86,4.86 0 0 0 1.59,-2.1 a0.11000000000000001,0.11000000000000001 0 0 0 -0.06000000000000001,0 c-0.8600000000000001,0.35000000000000003 -1.6900000000000002,0.7000000000000001 -2.3200000000000003,0.8900000000000001 a0.38000000000000006,0.38000000000000006 0 0 1 -0.32000000000000006,0 a6.69,6.69 0 0 0 -2.45,-0.8600000000000001 " id="svg_1"/></g></g></svg>