<svg xmlns="http://www.w3.org/2000/svg" width="7" height="15" style=""><rect id="backgroundrect" width="100%" height="100%" x="0" y="0" fill="none" stroke="none"/><defs><style>.cls-1{fill:#545454;}</style></defs><title>logos&amp;amp;other</title><g class="currentLayer" style=""><title>Layer 1</title><g id="Слой_3" data-name="Слой 3" class=""><path class="cls-1" d="M4.76,5.142883777618408 V3.822883777618408 a2.92,2.92 0 0 1 0,-0.46 a0.9,0.9 0 0 1 0.13,-0.32000000000000006 a0.51,0.51 0 0 1 0.31000000000000005,-0.22000000000000003 a2.26,2.26 0 0 1 0.5800000000000001,-0.06000000000000001 h1.31 V0.1428837776184082 H5 a3.42,3.42 0 0 0 -2.62,0.8700000000000001 a3.64,3.64 0 0 0 -0.8,2.55 v1.58 H0 v2.63 H1.6100000000000003 V15.392883777618408 H4.76 V7.762883777618409 h2.1 l0.28,-2.63 zm0,0 " id="svg_1"/></g></g></svg>