<svg xmlns="http://www.w3.org/2000/svg" width="15" height="15" style=""><rect id="backgroundrect" width="100%" height="100%" x="0" y="0" fill="none" stroke="none"/><defs><style>.cls-1{fill:#38387c;}</style></defs><title>logos&amp;amp;other</title><g class="currentLayer" style=""><title>Layer 1</title><g id="Слой_3" data-name="Слой 3" class=""><path class="cls-1" d="M10.650018310546876,0.008302154541016016 H4.550018310546875 A4.53,4.53 0 0 0 0.000018310546875177636,4.5283021545410165 v6.13 A4.53,4.53 0 0 0 4.550018310546875,15.188302154541017 H10.650018310546876 a4.53,4.53 0 0 0 4.52,-4.52 V4.5283021545410165 A4.53,4.53 0 0 0 10.650018310546876,0.008302154541016016 zm3,10.66 a3,3 0 0 1 -3,3 H4.550018310546875 a3,3 0 0 1 -3,-3 V4.5283021545410165 a3,3 0 0 1 3,-3 H10.650018310546876 a3,3 0 0 1 3,3 v6.13 z" id="svg_1"/><path class="cls-1" d="M7.550018310546875,3.6683021545410153 A3.93,3.93 0 1 0 11.550018310546875,7.598302154541015 A3.93,3.93 0 0 0 7.550018310546875,3.6683021545410153 zm0,6.32 a2.4,2.4 0 1 1 2.4,-2.4 A2.4,2.4 0 0 1 7.550018310546875,9.998302154541015 z" id="svg_2"/><circle class="cls-1" cx="11.520017623901367" cy="3.6983022689819336" r="0.9399999976158142" id="svg_3"/></g></g></svg>
