<svg id="Слой_1" data-name="Слой 1" xmlns="http://www.w3.org/2000/svg" viewBox="0 0 130.2 45.6"><defs><style>.cls-1{fill:#38387c;}</style></defs><title>kit-kino2</title><path class="cls-1" d="M22.8,15.5a7.25,7.25,0,1,0,7.3,7.3,7.41,7.41,0,0,0-7.3-7.3h0m3.6,3.3a1.85,1.85,0,0,0-.2-.7V18c-.1-.1,0-.3.3-.1l.1.1a3.6,3.6,0,0,1,1.1,1.4,2.46,2.46,0,0,1-.5,2.7,2.77,2.77,0,0,1-2.7,1c-.3-.1-.3-.3-.2-.3a2.94,2.94,0,0,0,1.6-1.5,3.12,3.12,0,0,0,.5-2.5m-4.5-2h.2a3.59,3.59,0,0,1,1.8.2,2.62,2.62,0,0,1,1.6,2.3,3,3,0,0,1-1.2,2.6c-.3.2-.4.1-.4-.1a3.33,3.33,0,0,0,.1-2.2,3.59,3.59,0,0,0-1.5-2.1,1.49,1.49,0,0,0-.7-.3h-.1c-.1-.2-.1-.3.2-.4M18,19.2l.1-.1a5.26,5.26,0,0,1,1.4-1.2,2.46,2.46,0,0,1,2.7.5,2.85,2.85,0,0,1,1,2.7c-.1.3-.2.3-.3.2a2.94,2.94,0,0,0-1.5-1.6,4,4,0,0,0-2.6-.5,1.85,1.85,0,0,0-.7.2H18c-.1.1-.3,0,0-.2M17.4,23a2.12,2.12,0,0,0-.3.7v.1c0,.1-.2.2-.2-.2v-.2a3.59,3.59,0,0,1,.2-1.8A2.62,2.62,0,0,1,19.4,20,3,3,0,0,1,22,21.2c.2.3.1.4-.1.3a3.33,3.33,0,0,0-2.2-.1A4.37,4.37,0,0,0,17.4,23m1.8,3.7a1.85,1.85,0,0,0,.2.7l.1.1c.1.1,0,.3-.3.1l-.1-.1A3.27,3.27,0,0,1,18,26a2.63,2.63,0,0,1,.4-2.7,2.85,2.85,0,0,1,2.7-1c.3.1.3.3.2.3a2.94,2.94,0,0,0-1.6,1.5,3.05,3.05,0,0,0-.5,2.6m4.4,2h-.2a3.59,3.59,0,0,1-1.8-.2A2.62,2.62,0,0,1,20,26.2a3,3,0,0,1,1.2-2.6c.3-.2.4-.1.3.1a4.48,4.48,0,0,0,0,2.3A3.59,3.59,0,0,0,23,28.1a1.49,1.49,0,0,0,.7.3h.1c.1.1.1.3-.2.3m4-2.3-.1.1A3.27,3.27,0,0,1,26,27.6a2.46,2.46,0,0,1-2.7-.5,2.58,2.58,0,0,1-.9-2.7c.1-.3.2-.3.3-.2a2.94,2.94,0,0,0,1.5,1.6,3.91,3.91,0,0,0,2.6.4,1.85,1.85,0,0,0,.7-.2h.1c.1,0,.2.1,0,.4m.8-4.5v-.1c0-.2.2-.2.2.1v.2a3.59,3.59,0,0,1-.2,1.8,2.62,2.62,0,0,1-2.3,1.6,3,3,0,0,1-2.6-1.2c-.2-.3-.1-.4.1-.3a3.33,3.33,0,0,0,2.2.1,3.59,3.59,0,0,0,2.1-1.5,1,1,0,0,0,.5-.7"/><path class="cls-1" d="M22.8,0A22.8,22.8,0,1,0,45.6,22.8h0A22.92,22.92,0,0,0,22.8,0M43.4,20.3C42.9,19.1,40.8,12,34,8.2,27,4.3,23.1,6.4,24,5.4c.4-.4,3.3-4,7.4-2a23.13,23.13,0,0,1,9.8,8.9,20.47,20.47,0,0,1,2.4,6.9s.6,3.3-.2,1.1M43.1,24a72.52,72.52,0,0,0-11.2,4.2c-6.4,2.8-12,4.2-20.1,1.4a18.88,18.88,0,0,1-9.5-7c-.8-1-.8-.9.3-1.2a38.62,38.62,0,0,0,8-3c4.3-2.1,10.7-4.3,16.5-4a20.64,20.64,0,0,1,13.8,6.1c3.7,3.4,3,3.3,2.2,3.5M23.4,1.9a12.73,12.73,0,0,0-8.2,5.7c-2,3.3-2.7,5.3-6.3,6.7S4,16.7,3,18s-1.5,2.9-1.4,1.8A20.3,20.3,0,0,1,6.4,9.3,21.22,21.22,0,0,1,23,1.7c1.7-.1,2.8-.1.4.2M2.1,25.2c.5,1.2,2.6,8.4,9.4,12.2,7,3.9,10.7,2,10,2.8-.4.4-3.3,4-7.4,2a22.57,22.57,0,0,1-9.8-8.9c-1.8-2.8-2.5-7.8-2.5-7.8s-.5-2.4.3-.3m20,18.5A12.73,12.73,0,0,0,30.3,38c2-3.3,2.7-5.3,6.2-6.7s4.9-2.4,5.9-3.7,1.5-2.9,1.4-1.8A20.67,20.67,0,0,1,39,36.3a21.22,21.22,0,0,1-16.6,7.6c-1.6.1-2.7,0-.3-.2"/><polygon class="cls-1" points="104.4 7.67 104.3 7.67 86.4 34.27 84.2 34.27 84.2 5.47 86 5.47 86 32.08 86.1 32.08 103.9 5.47 106.2 5.47 106.2 34.27 104.4 34.27 104.4 7.67"/><polygon class="cls-1" points="108.1 6.97 108.1 5.47 130.2 5.47 130.2 6.97 120.1 6.97 120.1 34.27 118.3 34.27 118.3 6.97 108.1 6.97"/><polygon class="cls-1" points="59.4 5.47 61.2 5.47 61.2 22.07 61.2 24.07 61.2 34.27 59.4 34.27 59.4 5.47"/><path class="cls-1" d="M61.6,19.78l20-14.3H79L60.2,18.88l.6.8a2.48,2.48,0,0,1,.8.1"/><path class="cls-1" d="M62.1,18.38a4.25,4.25,0,0,1-1.1.2,3.55,3.55,0,0,1-1-.2l-.3.3,19.7,15.5h2.9Z"/><path class="cls-1" d="M61.22,41.12l1.53,2.16h-1l-1.08-1.6-.46.45v1.15h-.77V39.71h.77v1.48l1.4-1.48h1Z"/><path class="cls-1" d="M70,43.28H69.2V40.8h0l-1.34,2.47H67V39.71h.78v2.47h0l1.34-2.47H70Z"/><path class="cls-1" d="M77.58,43.28H76.8V41.74H75.34v1.54h-.78V39.71h.78v1.34H76.8V39.71h.78Z"/><path class="cls-1" d="M85.53,41.5a1.76,1.76,0,1,1-1.75-1.87A1.71,1.71,0,0,1,85.53,41.5Zm-2.72,0c0,.77.37,1.23,1,1.23s1-.47,1-1.23-.37-1.22-1-1.22S82.8,40.74,82.8,41.48Z"/><path class="cls-1" d="M91.55,43.36a1.7,1.7,0,0,1-1.72-1.87,1.73,1.73,0,0,1,1.75-1.86,1.44,1.44,0,0,1,1.54,1.28h-.77a.75.75,0,0,0-.79-.62c-.69,0-1,.62-1,1.21s.37,1.21.94,1.21.75-.28.82-.8h.78A1.49,1.49,0,0,1,91.55,43.36Z"/><path class="cls-1" d="M100.12,40.38H99.05v2.9h-.79v-2.9H97.19v-.67h2.93Z"/><path class="cls-1" d="M104.59,42.6a1,1,0,0,0,.38.08.32.32,0,0,0,.36-.31,1.16,1.16,0,0,0-.17-.46l-1-2.2H105l.81,1.88.79-1.88h.84l-1.2,2.62c-.33.73-.61,1-1.19,1a1.28,1.28,0,0,1-.44-.08Z"/><path class="cls-1" d="M114.19,44.19v-.92h-2.26v.92h-.76V42.61h.27a3.79,3.79,0,0,0,.57-2.36v-.54h2.54v2.9h.4v1.58Zm-.42-3.84h-1v.06a4.33,4.33,0,0,1-.48,2.2h1.46Z"/><path class="cls-1" d="M122.28,43.28h-.78V40.8h0l-1.34,2.47h-.88V39.71H120v2.47h0l1.34-2.47h.88Z"/><path class="cls-1" d="M127.52,43.28h-1l1.11-1.44a1,1,0,0,1-.82-1,1.08,1.08,0,0,1,1.23-1.09h1.75v3.56H129v-1.4h-.46ZM129,40.33h-.78c-.33,0-.66.07-.66.48s.33.51.69.51H129Z"/></svg>