<svg id="Слой_1" data-name="Слой 1" xmlns="http://www.w3.org/2000/svg" viewBox="0 0 70.8 98.12"><defs><style>.cls-1{fill:#38387c;}</style></defs><title>kit-kino</title><path class="cls-1" d="M34.4,15.5a7.25,7.25,0,1,0,7.3,7.3,7.41,7.41,0,0,0-7.3-7.3h0M38,18.8a1.85,1.85,0,0,0-.2-.7V18c-.1-.1,0-.3.3-.1l.1.1a3.6,3.6,0,0,1,1.1,1.4,2.46,2.46,0,0,1-.5,2.7,2.77,2.77,0,0,1-2.7,1c-.3-.1-.3-.3-.2-.3a2.94,2.94,0,0,0,1.6-1.5,3.12,3.12,0,0,0,.5-2.5m-4.5-2h.2a3.59,3.59,0,0,1,1.8.2,2.62,2.62,0,0,1,1.6,2.3,3,3,0,0,1-1.2,2.6c-.3.2-.4.1-.4-.1a3.33,3.33,0,0,0,.1-2.2,3.59,3.59,0,0,0-1.5-2.1,1.49,1.49,0,0,0-.7-.3h-.1c-.1-.2-.1-.3.2-.4m-3.9,2.4.1-.1a5.26,5.26,0,0,1,1.4-1.2,2.46,2.46,0,0,1,2.7.5,2.85,2.85,0,0,1,1,2.7c-.1.3-.2.3-.3.2A2.94,2.94,0,0,0,33,19.7a4,4,0,0,0-2.6-.5,1.85,1.85,0,0,0-.7.2h-.1c-.1.1-.3,0,0-.2M29,23a2.12,2.12,0,0,0-.3.7v.1c0,.1-.2.2-.2-.2v-.2a3.59,3.59,0,0,1,.2-1.8A2.62,2.62,0,0,1,31,20a3,3,0,0,1,2.6,1.2c.2.3.1.4-.1.3a3.33,3.33,0,0,0-2.2-.1A4.37,4.37,0,0,0,29,23m1.8,3.7a1.85,1.85,0,0,0,.2.7l.1.1c.1.1,0,.3-.3.1l-.1-.1A3.27,3.27,0,0,1,29.6,26a2.63,2.63,0,0,1,.4-2.7,2.85,2.85,0,0,1,2.7-1c.3.1.3.3.2.3a2.94,2.94,0,0,0-1.6,1.5,3.05,3.05,0,0,0-.5,2.6m4.4,2H35a3.59,3.59,0,0,1-1.8-.2,2.62,2.62,0,0,1-1.6-2.3,3,3,0,0,1,1.2-2.6c.3-.2.4-.1.3.1a4.48,4.48,0,0,0,0,2.3,3.59,3.59,0,0,0,1.5,2.1,1.49,1.49,0,0,0,.7.3h.1c.1.1.1.3-.2.3m4-2.3-.1.1a3.27,3.27,0,0,1-1.5,1.1,2.46,2.46,0,0,1-2.7-.5,2.58,2.58,0,0,1-.9-2.7c.1-.3.2-.3.3-.2a2.94,2.94,0,0,0,1.5,1.6,3.91,3.91,0,0,0,2.6.4,1.85,1.85,0,0,0,.7-.2h.1c.1,0,.2.1,0,.4m.8-4.5v-.1c0-.2.2-.2.2.1v.2a3.59,3.59,0,0,1-.2,1.8,2.62,2.62,0,0,1-2.3,1.6,3,3,0,0,1-2.6-1.2c-.2-.3-.1-.4.1-.3a3.33,3.33,0,0,0,2.2.1,3.59,3.59,0,0,0,2.1-1.5,1,1,0,0,0,.5-.7"/><path class="cls-1" d="M34.4,0A22.8,22.8,0,1,0,57.2,22.8h0A22.92,22.92,0,0,0,34.4,0M55,20.3c-.5-1.2-2.6-8.3-9.4-12.1-7-3.9-10.9-1.8-10-2.8.4-.4,3.3-4,7.4-2a23.13,23.13,0,0,1,9.8,8.9,20.47,20.47,0,0,1,2.4,6.9s.6,3.3-.2,1.1M54.7,24a72.52,72.52,0,0,0-11.2,4.2c-6.4,2.8-12,4.2-20.1,1.4a18.88,18.88,0,0,1-9.5-7c-.8-1-.8-.9.3-1.2a38.62,38.62,0,0,0,8-3c4.3-2.1,10.7-4.3,16.5-4a20.64,20.64,0,0,1,13.8,6.1c3.7,3.4,3,3.3,2.2,3.5M35,1.9a12.73,12.73,0,0,0-8.2,5.7c-2,3.3-2.7,5.3-6.3,6.7s-4.9,2.4-5.9,3.7-1.5,2.9-1.4,1.8A20.3,20.3,0,0,1,18,9.3,21.22,21.22,0,0,1,34.6,1.7c1.7-.1,2.8-.1.4.2M13.7,25.2c.5,1.2,2.6,8.4,9.4,12.2,7,3.9,10.7,2,10,2.8-.4.4-3.3,4-7.4,2a22.57,22.57,0,0,1-9.8-8.9c-1.8-2.8-2.5-7.8-2.5-7.8s-.5-2.4.3-.3m20,18.5A12.73,12.73,0,0,0,41.9,38c2-3.3,2.7-5.3,6.2-6.7S53,28.9,54,27.6s1.5-2.9,1.4-1.8a20.67,20.67,0,0,1-4.8,10.5A21.22,21.22,0,0,1,34,43.9c-1.6.1-2.7,0-.3-.2"/><polygon class="cls-1" points="45 61.6 44.9 61.6 27 88.2 24.8 88.2 24.8 59.4 26.6 59.4 26.6 86 26.7 86 44.5 59.4 46.8 59.4 46.8 88.2 45 88.2 45 61.6"/><polygon class="cls-1" points="48.7 60.9 48.7 59.4 70.8 59.4 70.8 60.9 60.7 60.9 60.7 88.2 58.9 88.2 58.9 60.9 48.7 60.9"/><polygon class="cls-1" points="0 59.4 1.8 59.4 1.8 76 1.8 78 1.8 88.2 0 88.2 0 59.4"/><path class="cls-1" d="M2.2,73.7l20-14.3H19.6L.8,72.8l.6.8a2.48,2.48,0,0,1,.8.1"/><path class="cls-1" d="M2.7,72.3a4.25,4.25,0,0,1-1.1.2,3.55,3.55,0,0,1-1-.2l-.3.3L20,88.1h2.9Z"/><path class="cls-1" d="M1.82,95,3.35,97.2h-1L1.29,95.6.83,96V97.2H.06V93.64H.83v1.48l1.4-1.48h1Z"/><path class="cls-1" d="M10.58,97.2H9.8V94.73h0L8.44,97.2H7.56V93.64h.78V96.1h0L9.7,93.64h.88Z"/><path class="cls-1" d="M18.18,97.2H17.4V95.66H15.94V97.2h-.78V93.64h.78V95H17.4V93.64h.78Z"/><path class="cls-1" d="M26.13,95.42a1.76,1.76,0,1,1-1.75-1.87A1.71,1.71,0,0,1,26.13,95.42Zm-2.72,0c0,.77.37,1.23,1,1.23s1-.47,1-1.23-.37-1.22-1-1.22S23.4,94.67,23.4,95.41Z"/><path class="cls-1" d="M32.15,97.29a1.7,1.7,0,0,1-1.72-1.87,1.73,1.73,0,0,1,1.75-1.86,1.44,1.44,0,0,1,1.54,1.28H33a.75.75,0,0,0-.79-.62c-.69,0-1,.62-1,1.21s.37,1.21.94,1.21.75-.28.82-.8h.78A1.49,1.49,0,0,1,32.15,97.29Z"/><path class="cls-1" d="M40.72,94.3H39.65v2.9h-.79V94.3H37.79v-.67h2.93Z"/><path class="cls-1" d="M45.19,96.52a1,1,0,0,0,.38.08.32.32,0,0,0,.36-.31,1.16,1.16,0,0,0-.17-.46l-1-2.2h.87l.81,1.88.79-1.88H48l-1.2,2.62c-.33.73-.61,1-1.19,1a1.28,1.28,0,0,1-.44-.08Z"/><path class="cls-1" d="M54.79,98.12V97.2H52.52v.92h-.76V96.53H52a3.79,3.79,0,0,0,.57-2.36v-.54h2.54v2.9h.4v1.58Zm-.42-3.84h-1v.06a4.33,4.33,0,0,1-.48,2.2h1.46Z"/><path class="cls-1" d="M62.88,97.2H62.1V94.73h0L60.74,97.2h-.88V93.64h.78V96.1h0L62,93.64h.88Z"/><path class="cls-1" d="M68.12,97.2h-1l1.11-1.44a1,1,0,0,1-.82-1,1.08,1.08,0,0,1,1.23-1.09H70.4V97.2h-.78V95.8h-.46Zm1.51-2.95h-.78c-.33,0-.66.07-.66.48s.33.51.69.51h.74Z"/></svg>