<svg xmlns="http://www.w3.org/2000/svg" version="1.1" style="" width="71" height="107">
	<path fill="#38387c" d="M34.5,15.5c-4,0-7.2,3.3-7.2,7.3s3.3,7.2,7.3,7.2c4,0,7.2-3.3,7.2-7.2C41.7,18.8,38.5,15.5,34.5,15.5
		C34.5,15.5,34.5,15.5,34.5,15.5 M38.1,18.8c0-0.2-0.1-0.5-0.2-0.7l0-0.1c-0.1-0.1,0-0.3,0.3-0.1l0.1,0.1c0.5,0.4,0.9,0.9,1.1,1.4
		c0.4,0.9,0.2,2-0.5,2.7c-0.6,0.8-1.7,1.2-2.7,1c-0.3-0.1-0.3-0.3-0.2-0.3c0.7-0.3,1.3-0.8,1.6-1.5C38.1,20.6,38.3,19.7,38.1,18.8
		 M33.6,16.8h0.2c0.6-0.1,1.3,0,1.8,0.2c0.9,0.4,1.6,1.3,1.6,2.3c0.1,1-0.4,2-1.2,2.6c-0.3,0.2-0.4,0.1-0.4-0.1
		c0.3-0.7,0.3-1.5,0.1-2.2c-0.2-0.9-0.8-1.6-1.5-2.1c-0.2-0.1-0.4-0.3-0.7-0.3l-0.1,0C33.3,17,33.3,16.9,33.6,16.8 M29.7,19.2
		l0.1-0.1c0.4-0.5,0.9-0.9,1.4-1.2c0.9-0.4,2-0.2,2.7,0.5c0.8,0.7,1.2,1.7,1,2.7c-0.1,0.3-0.2,0.3-0.3,0.2c-0.3-0.7-0.8-1.3-1.5-1.6
		c-0.8-0.5-1.7-0.6-2.6-0.5c-0.2,0-0.5,0.1-0.7,0.2l-0.1,0C29.6,19.5,29.4,19.4,29.7,19.2 M29.1,23c-0.1,0.2-0.3,0.5-0.3,0.7l0,0.1
		c0,0.1-0.2,0.2-0.2-0.2v-0.2c-0.1-0.6,0-1.3,0.2-1.8c0.4-0.9,1.3-1.6,2.3-1.6c1-0.1,2,0.4,2.6,1.2c0.2,0.3,0.1,0.4-0.1,0.3
		c-0.7-0.3-1.5-0.3-2.2-0.1C30.4,21.7,29.6,22.3,29.1,23 M30.9,26.7c0,0.2,0.1,0.5,0.2,0.7l0.1,0.1c0.1,0.1,0,0.3-0.3,0.1l-0.1-0.1
		c-0.5-0.4-0.9-0.9-1.1-1.5c-0.4-0.9-0.2-2,0.4-2.7c0.7-0.8,1.7-1.2,2.7-1c0.3,0.1,0.3,0.3,0.2,0.3c-0.7,0.3-1.3,0.8-1.6,1.5
		C30.8,24.9,30.7,25.8,30.9,26.7 M35.3,28.7h-0.2c-0.6,0.1-1.3,0-1.8-0.2c-0.9-0.4-1.6-1.3-1.6-2.3c-0.1-1,0.4-2,1.2-2.6
		c0.3-0.2,0.4-0.1,0.3,0.1C33,24.5,33,25.2,33.2,26c0.2,0.9,0.8,1.6,1.5,2.1c0.2,0.1,0.4,0.3,0.7,0.3l0.1,0
		C35.6,28.5,35.6,28.7,35.3,28.7 M39.3,26.4l-0.1,0.1c-0.4,0.5-0.9,0.9-1.5,1.1c-0.9,0.4-2,0.2-2.7-0.5c-0.8-0.7-1.2-1.7-0.9-2.7
		c0.1-0.3,0.2-0.3,0.3-0.2c0.3,0.7,0.8,1.3,1.5,1.6c0.8,0.4,1.7,0.6,2.6,0.4c0.2,0,0.5-0.1,0.7-0.2l0.1,0
		C39.4,26,39.5,26.1,39.3,26.4 M40.1,21.9l0-0.1c0-0.2,0.2-0.2,0.2,0.1v0.2c0.1,0.6,0,1.3-0.2,1.8c-0.4,0.9-1.3,1.6-2.3,1.6
		c-1,0.1-2-0.4-2.6-1.2c-0.2-0.3-0.1-0.4,0.1-0.3c0.7,0.3,1.5,0.3,2.2,0.1c0.9-0.2,1.6-0.8,2.1-1.5C39.9,22.4,40.1,22.1,40.1,21.9"
		/>
	<path fill="#38387c" d="M34.5,0C21.9,0,11.7,10.2,11.7,22.8c0,12.6,10.2,22.8,22.8,22.8c12.6,0,22.8-10.2,22.8-22.8c0,0,0,0,0,0
		C57.2,10.2,47,0,34.5,0 M55.1,20.3c-0.5-1.2-2.6-8.3-9.4-12.1c-7-3.9-10.9-1.8-10-2.8c0.4-0.4,3.3-4,7.4-2s7,4.6,9.8,8.9
		c1.8,2.8,2.4,6.9,2.4,6.9S55.9,22.5,55.1,20.3 M54.8,24c-0.8,0.2-4.2,1.1-11.2,4.2c-6.4,2.8-12,4.2-20.1,1.4
		c-3.8-1.2-7.1-3.7-9.5-7c-0.8-1-0.8-0.9,0.3-1.2c2.8-0.7,5.4-1.7,8-3c4.3-2.1,10.7-4.3,16.5-4c5.2,0.2,10.1,2.4,13.8,6.1
		C56.3,23.9,55.6,23.8,54.8,24 M35.1,1.9c-2.4,0.3-6.2,2.4-8.2,5.7s-2.7,5.3-6.3,6.7s-4.9,2.4-5.9,3.7c-1,1.3-1.5,2.9-1.4,1.8
		c0.6-3.9,2.2-7.6,4.8-10.5c4.1-4.9,10.2-7.7,16.6-7.6C36.4,1.6,37.5,1.6,35.1,1.9 M13.8,25.2c0.5,1.2,2.6,8.4,9.4,12.2
		c7,3.9,10.7,2,10,2.8c-0.4,0.4-3.3,4-7.4,2c-4.2-2-7-4.6-9.8-8.9c-1.8-2.8-2.5-7.8-2.5-7.8S13,23.1,13.8,25.2 M33.8,43.7
		c2.4-0.3,6.2-2.4,8.2-5.7s2.7-5.3,6.2-6.7s4.9-2.4,5.9-3.7c1-1.3,1.5-2.9,1.4-1.8c-0.6,3.9-2.2,7.5-4.8,10.5
		c-4.1,4.9-10.2,7.7-16.6,7.6C32.5,44,31.4,43.9,33.8,43.7"/>
	<polygon fill="#38387c" points="0.1,102.5 0.9,102.5 0.9,104 2.3,102.5 3.4,102.5 1.8,104 3.4,106.2 2.4,106.2 1.3,104.6 0.9,104.9
		0.9,106.2 0.1,106.2 	"/>
	<polygon fill="#38387c" points="4.3,102.5 5.1,102.5 5.1,105 5.1,105 6.6,102.5 7.4,102.5 7.4,106.2 6.6,106.2 6.6,103.7 6.6,103.7
		5.1,106.2 4.3,106.2 	"/>
	<polygon fill="#38387c" points="8.7,102.5 9.4,102.5 9.4,103.9 10.9,103.9 10.9,102.5 11.7,102.5 11.7,106.2 10.9,106.2 10.9,104.5
		9.4,104.5 9.4,106.2 8.7,106.2 	"/>
	<path fill="#38387c" d="M12.8,104.3c0-0.3,0-0.5,0.1-0.8c0.1-0.2,0.2-0.4,0.3-0.6c0.2-0.2,0.3-0.3,0.6-0.4c0.2-0.1,0.5-0.2,0.8-0.2
		c0.3,0,0.5,0,0.8,0.2c0.2,0.1,0.4,0.2,0.6,0.4c0.2,0.2,0.3,0.4,0.4,0.6c0.1,0.3,0.1,0.5,0.1,0.8c0,0.3,0,0.5-0.1,0.8
		c-0.1,0.2-0.2,0.4-0.4,0.6c-0.2,0.2-0.3,0.3-0.6,0.4c-0.2,0.1-0.5,0.2-0.8,0.2c-0.3,0-0.5,0-0.8-0.2c-0.2-0.1-0.4-0.2-0.6-0.4
		c-0.1-0.2-0.3-0.4-0.3-0.6C12.9,104.9,12.8,104.6,12.8,104.3 M14.6,105.6c0.1,0,0.3,0,0.4-0.1c0.1-0.1,0.2-0.2,0.3-0.3
		c0.1-0.1,0.2-0.3,0.2-0.4c0-0.2,0.1-0.3,0.1-0.5c0-0.2,0-0.3-0.1-0.5c0-0.1-0.1-0.3-0.2-0.4c-0.1-0.1-0.2-0.2-0.3-0.3
		c-0.3-0.1-0.6-0.1-0.9,0c-0.1,0.1-0.2,0.2-0.3,0.3c-0.1,0.1-0.2,0.3-0.2,0.4c0,0.2-0.1,0.3-0.1,0.5c0,0.2,0,0.4,0.1,0.5
		c0,0.1,0.1,0.3,0.2,0.4c0.1,0.1,0.2,0.2,0.3,0.3C14.4,105.6,14.5,105.6,14.6,105.6"/>
	<polygon fill="#38387c" points="19.6,102.5 20.3,102.5 20.3,105 20.3,105 21.8,102.5 22.6,102.5 22.6,106.2 21.9,106.2 21.9,103.7
		21.9,103.7 20.4,106.2 19.6,106.2 	"/>
	<polygon fill="#38387c" points="25.6,102.5 28.7,102.5 28.7,103.1 27.5,103.1 27.5,106.2 26.7,106.2 26.7,103.1 25.6,103.1 	"/>
	<polygon fill="#38387c" points="29.7,102.5 32.4,102.5 32.4,103.1 30.4,103.1 30.4,103.9 32.3,103.9 32.3,104.6 30.4,104.6
		30.4,105.5 32.5,105.5 32.5,106.2 29.7,106.2 	"/>
	<path fill="#38387c" d="M36,103.1h-1.1v0.6c0,0.3,0,0.7,0,0.9c0,0.2,0,0.5-0.1,0.7c0,0.2-0.1,0.3-0.1,0.5c0,0.1-0.1,0.2-0.2,0.3
		c-0.1,0.1-0.2,0.1-0.3,0.2c-0.1,0-0.2,0.1-0.3,0h-0.2c-0.1,0-0.1,0-0.2-0.1v-0.7h0.1h0.1h0.1h0.1c0,0,0.1,0,0.1-0.1
		c0-0.1,0.1-0.1,0.1-0.2c0-0.1,0-0.2,0.1-0.3c0-0.1,0-0.3,0-0.5c0-0.2,0-0.4,0-0.7v-1.3h2.6v3.8H36V103.1z"/>
	<polygon fill="#38387c" points="38,102.5 40.8,102.5 40.8,103.1 38.8,103.1 38.8,103.9 40.6,103.9 40.6,104.6 38.8,104.6 38.8,105.5
		40.9,105.5 40.9,106.2 38,106.2 	"/>
	<path fill="#38387c" d="M42.1,102.5h1.8c0.1,0,0.3,0,0.4,0c0.1,0,0.2,0.1,0.3,0.1c0.1,0,0.2,0.1,0.2,0.2c0.1,0.1,0.1,0.1,0.1,0.2
		c0,0.1,0.1,0.1,0.1,0.2c0,0.1,0,0.1,0,0.2c0,0.1,0,0.2,0,0.3c0,0.1,0,0.1-0.1,0.2c0,0.1-0.1,0.1-0.1,0.2c-0.1,0.1-0.1,0.1-0.2,0.1
		c0.1,0,0.2,0.1,0.3,0.2c0.1,0.1,0.1,0.1,0.2,0.2c0,0.1,0.1,0.2,0.1,0.2c0,0.1,0,0.2,0,0.2c0,0.2,0,0.3-0.1,0.5
		c-0.1,0.1-0.2,0.3-0.3,0.4c-0.1,0.1-0.3,0.2-0.4,0.2c-0.2,0.1-0.4,0.1-0.6,0.1h-1.7V102.5z M42.8,103.9h1c0.1,0,0.1,0,0.2,0
		c0.1,0,0.1,0,0.2-0.1c0,0,0.1-0.1,0.1-0.1c0-0.1,0-0.1,0-0.2c0-0.1,0-0.1,0-0.2c0-0.1-0.1-0.1-0.1-0.1c-0.1,0-0.1-0.1-0.2-0.1
		c-0.1,0-0.1,0-0.2,0h-1L42.8,103.9z M42.8,105.6h1c0.1,0,0.2,0,0.2,0c0.1,0,0.1-0.1,0.2-0.1c0.1,0,0.1-0.1,0.1-0.2
		c0-0.1,0-0.1,0-0.2c0-0.1,0-0.2,0-0.3c0-0.1-0.1-0.1-0.1-0.2c-0.1,0-0.1-0.1-0.2-0.1c-0.1,0-0.2,0-0.2,0h-1V105.6z"/>
	<polygon fill="#38387c" points="46.3,102.5 47.1,102.5 47.1,105 47.1,105 48.6,102.5 49.3,102.5 49.3,106.2 48.6,106.2 48.6,103.7
		48.6,103.7 47.1,106.2 46.3,106.2 	"/>
	<path fill="#38387c" d="M50.3,105.6h0.3c0-0.1,0.1-0.2,0.1-0.3c0-0.1,0.1-0.2,0.1-0.4c0-0.1,0.1-0.3,0.1-0.4c0-0.2,0.1-0.4,0.1-0.5
		c0-0.2,0.1-0.4,0.1-0.7c0-0.2,0-0.5,0-0.8h2.6v3.1H54v1.5h-0.7v-0.8H51v0.8h-0.7V105.6z M52.9,103.1h-1.1c0,0.1,0,0.2,0,0.3
		c0,0.1,0,0.2,0,0.4s0,0.3,0,0.4c0,0.2,0,0.3-0.1,0.5c0,0.2-0.1,0.3-0.1,0.5c0,0.2-0.1,0.3-0.1,0.5h1.5L52.9,103.1z"/>
	<polygon fill="#38387c" points="55.1,102.5 57.8,102.5 57.8,103.1 55.8,103.1 55.8,103.9 57.7,103.9 57.7,104.6 55.8,104.6
		55.8,105.5 57.9,105.5 57.9,106.2 55.1,106.2 	"/>
	<polygon fill="#38387c" points="59,102.5 59.8,102.5 59.8,103.9 61.3,103.9 61.3,102.5 62.1,102.5 62.1,106.2 61.3,106.2 61.3,104.5
		59.8,104.5 59.8,106.2 59,106.2 	"/>
	<polygon fill="#38387c" points="63.4,102.5 64.1,102.5 64.1,105 64.1,105 65.6,102.5 66.4,102.5 66.4,106.2 65.6,106.2 65.6,103.7
		65.6,103.7 64.2,106.2 63.4,106.2 	"/>
	<polygon fill="#38387c" points="67.7,102.5 70.5,102.5 70.5,103.1 68.5,103.1 68.5,103.9 70.3,103.9 70.3,104.6 68.5,104.6
		68.5,105.5 70.6,105.5 70.6,106.2 67.7,106.2"/>
	<polygon fill="#38387c" points="0.1,59.4 2.6,59.4 2.6,60.1 0.9,60.1 0.9,63.1 0.1,63.1 	"/>
	<path fill="#38387c" d="M4.2,59.4h1.7c0.2,0,0.4,0,0.6,0.1c0.2,0.1,0.3,0.2,0.4,0.3C7,59.9,7.1,60,7.2,60.1c0.1,0.3,0.1,0.6,0,0.9
		c0,0.1-0.1,0.3-0.2,0.4c-0.1,0.1-0.2,0.2-0.4,0.3c-0.2,0.1-0.4,0.1-0.6,0.1H5.1v1.3H4.2V59.4z M5.7,61.1c0.1,0,0.2,0,0.3,0
		c0.1,0,0.2,0,0.2-0.1c0.1,0,0.1-0.1,0.2-0.2c0-0.1,0.1-0.2,0.1-0.3c0-0.1,0-0.2-0.1-0.3c0-0.1-0.1-0.1-0.2-0.2
		c-0.1,0-0.1-0.1-0.2-0.1c-0.1,0-0.2,0-0.3,0H5.1v1.1L5.7,61.1z"/>
	<path fill="#38387c" d="M9.7,63.2c-0.1,0-0.2,0-0.2,0l-0.2-0.1v-0.7c0,0,0.1,0,0.1,0c0.1,0,0.1,0,0.2,0c0.2,0,0.4-0.1,0.5-0.3
		l-1.5-2.8h0.9l1,1.9l0.8-1.9h0.9l-1.2,2.8c-0.1,0.2-0.2,0.3-0.3,0.5c-0.1,0.1-0.2,0.2-0.3,0.3c-0.1,0.1-0.2,0.2-0.3,0.2
		C9.9,63.2,9.8,63.2,9.7,63.2"/>
	<polygon fill="#38387c" points="13.5,59.4 16.6,59.4 16.6,63.1 15.8,63.1 15.8,60.1 14.4,60.1 14.4,63.1 13.5,63.1 	"/>
	<polygon fill="#38387c" points="18.6,59.4 21.7,59.4 21.7,63.1 20.9,63.1 20.9,60.1 19.4,60.1 19.4,63.1 18.6,63.1 	"/>
	<path fill="#38387c" d="M24.6,59.4h0.8l1.4,3.7H26l-0.3-0.8h-1.4l-0.3,0.8h-0.8L24.6,59.4z M25.5,61.7l-0.5-1.4l0,0l-0.5,1.4H25.5z"/>
	<polygon fill="#38387c" points="31.1,59.4 31.9,59.4 31.9,60.9 33.4,59.4 34.4,59.4 32.8,60.9 34.5,63.1 33.5,63.1 32.2,61.5
		31.9,61.8 31.9,63.1 31.1,63.1 	"/>
	<path fill="#38387c" d="M37.7,63.2c-0.3,0-0.5,0-0.8-0.1c-0.2-0.1-0.4-0.2-0.6-0.4c-0.2-0.2-0.3-0.4-0.4-0.6c-0.1-0.2-0.1-0.5-0.1-0.8
		c0-0.3,0-0.5,0.1-0.8c0.1-0.2,0.2-0.4,0.4-0.6c0.2-0.2,0.4-0.3,0.6-0.4c0.5-0.2,1.1-0.2,1.5,0c0.2,0.1,0.4,0.2,0.6,0.4
		c0.2,0.2,0.3,0.4,0.4,0.6c0.1,0.2,0.1,0.5,0.1,0.8c0,0.3,0,0.5-0.1,0.8c-0.1,0.2-0.2,0.4-0.4,0.6c-0.2,0.2-0.4,0.3-0.6,0.4
		C38.3,63.2,38,63.2,37.7,63.2 M37.7,62.5c0.2,0,0.3,0,0.5-0.1c0.1-0.1,0.2-0.2,0.3-0.3c0.1-0.1,0.1-0.3,0.2-0.4
		c0-0.2,0.1-0.3,0.1-0.5c0-0.2,0-0.3-0.1-0.5c0-0.1-0.1-0.3-0.2-0.4c-0.1-0.1-0.2-0.2-0.3-0.3C38.1,60,37.9,60,37.7,60
		c-0.2,0-0.3,0-0.5,0.1c-0.1,0.1-0.2,0.2-0.3,0.3c-0.1,0.1-0.1,0.3-0.2,0.4c0,0.2-0.1,0.3-0.1,0.5c0,0.2,0,0.3,0.1,0.5
		c0,0.1,0.1,0.3,0.2,0.4c0.1,0.1,0.2,0.2,0.3,0.3C37.4,62.5,37.6,62.5,37.7,62.5"/>
	<polygon fill="#38387c" points="41.4,59.4 42.5,59.4 43.4,62 43.4,62 44.2,59.4 45.4,59.4 45.4,63.1 44.6,63.1 44.6,60.5 44.6,60.5
		43.7,63.1 43,63.1 42.1,60.5 42.1,60.5 42.1,63.1 41.4,63.1 	"/>
	<polygon fill="#38387c" points="47.3,59.4 50.4,59.4 50.4,63.1 49.6,63.1 49.6,60.1 48.1,60.1 48.1,63.1 47.3,63.1 	"/>
	<path fill="#38387c" d="M53.4,59.4h0.8l1.4,3.7h-0.9l-0.3-0.8h-1.4l-0.3,0.8H52L53.4,59.4z M54.3,61.7l-0.5-1.4l0,0l-0.5,1.4H54.3z"/>
	<polygon fill="#38387c" points="57.1,59.4 58,59.4 58,60.8 59.5,60.8 59.5,59.4 60.3,59.4 60.3,63.1 59.5,63.1 59.5,61.5 58,61.5
		58,63.1 57.1,63.1 	"/>
	<polygon fill="#38387c" points="62.2,59.4 63,59.4 63,62 63.1,62 64.5,59.4 65.4,59.4 65.4,63.1 64.6,63.1 64.6,60.5 64.6,60.5
		63.2,63.1 62.2,63.1 	"/>
	<path fill="#38387c" d="M67.3,59.4h0.8V62l0,0l1.4-2.6h0.9v3.7h-0.8v-2.6l0,0l-1.4,2.6h-0.9L67.3,59.4z M69,59.1c-0.7,0-1-0.3-1-0.8
		h0.6c0,0.1,0,0.2,0.1,0.3c0.1,0.1,0.2,0.1,0.3,0.1c0.1,0,0.2,0,0.3-0.1c0.1-0.1,0.1-0.2,0.1-0.3H70C70,58.8,69.7,59.1,69,59.1"/>
	<polygon fill="#38387c" points="45.1,70.6 45,70.6 27.1,97.2 24.9,97.2 24.9,68.4 26.7,68.4 26.7,95 26.8,95 44.6,68.4 46.9,68.4
		46.9,97.2 45.1,97.2 	"/>
	<polygon fill="#38387c" points="48.8,69.9 48.8,68.4 70.9,68.4 70.9,69.9 60.8,69.9 60.8,97.2 59,97.2 59,69.9 	"/>
	<polygon fill="#38387c" points="0.1,68.4 1.9,68.4 1.9,85 1.9,87 1.9,97.2 0.1,97.2 	"/>
	<path fill="#38387c" d="M2.3,82.7l20-14.3h-2.6L0.9,81.8l0.6,0.8C1.7,82.6,2,82.6,2.3,82.7"/>
	<path fill="#38387c" d="M2.8,81.3c-0.4,0.1-0.7,0.2-1.1,0.2c-0.3,0-0.7-0.1-1-0.2l-0.3,0.3l19.7,15.5H23L2.8,81.3z"/>
</svg>
