<svg version="1.1" xmlns="http://www.w3.org/2000/svg" xmlns:xlink="http://www.w3.org/1999/xlink" preserveAspectRatio="xMidYMid meet" viewBox="0 0 77 77" width="77" height="77"><path fill="#38387c" d="M41.12 26.56L42.36 26.9L43.54 27.36L44.66 27.94L45.71 28.63L46.68 29.42L47.57 30.31L48.36 31.28L49.05 32.33L49.63 33.45L50.09 34.63L50.44 35.87L50.65 37.16L50.72 38.5L50.65 39.83L50.44 41.12L50.09 42.36L49.63 43.54L49.05 44.66L48.36 45.71L47.57 46.68L46.68 47.57L45.71 48.36L44.66 49.05L43.54 49.63L42.36 50.09L41.12 50.44L39.83 50.65L38.5 50.72L37.16 50.65L35.87 50.44L34.63 50.09L33.45 49.63L32.33 49.05L31.28 48.36L30.31 47.57L29.42 46.68L28.63 45.71L27.94 44.66L27.36 43.54L26.9 42.36L26.56 41.12L26.35 39.83L26.27 38.5L26.35 37.16L26.56 35.87L26.9 34.63L27.36 33.45L27.94 32.33L28.63 31.28L29.42 30.31L30.31 29.42L31.28 28.63L32.33 27.94L33.45 27.36L34.63 26.9L35.87 26.56L37.16 26.35L38.5 26.27L39.83 26.35L41.12 26.56ZM35.93 39.99L35.13 40.65L34.51 41.45L34.07 42.36L33.84 43.35L33.83 44.38L34 45.37L34.38 46.28L34.94 47.08L35.67 47.74L36.55 48.22L37.15 48.42L37.77 48.56L38.4 48.64L39.03 48.64L39.67 48.59L39.94 48.59L39.97 48.57L40.25 48.51L40.39 48.42L40.42 48.32L40.36 48.23L40.23 48.16L40.02 48.1L39.79 48.01L39.55 47.91L39.33 47.8L39.11 47.67L38.89 47.53L38.2 46.97L37.59 46.32L37.08 45.59L36.67 44.8L36.38 43.95L36.21 43.2L36.14 42.43L36.17 41.67L36.29 40.91L36.52 40.17L36.54 40.01L36.49 39.89L36.36 39.84L36.17 39.87L35.93 39.99ZM37.75 41.4L37.67 42.68L37.93 43.91L38.51 45.03L39.38 45.97L40.42 46.66L41.59 47.03L42.81 47.07L44.02 46.76L44.72 46.39L45.37 45.95L45.96 45.42L46.47 44.82L46.64 44.61L46.65 44.6L46.82 44.31L46.82 44.14L46.71 44.08L46.54 44.13L46.35 44.21L46.06 44.34L45.76 44.45L45.46 44.54L45.15 44.61L44.03 44.71L42.92 44.62L41.85 44.34L40.83 43.86L40.04 43.33L39.34 42.68L38.76 41.94L38.29 41.1L38.17 40.95L38.01 40.94L37.86 41.08L37.75 41.4ZM32.65 38.14L31.79 38.67L31.05 39.39L30.47 40.21L30.1 41.12L29.93 42.08L29.99 43.06L30.27 44.03L30.55 44.61L30.89 45.15L31.28 45.66L31.72 46.12L32.21 46.54L32.43 46.7L32.67 46.86L32.83 46.89L32.92 46.85L32.94 46.74L32.89 46.6L32.8 46.41L32.7 46.18L32.6 45.94L32.52 45.7L32.46 45.46L32.4 45.21L32.36 45.16L32.27 44.26L32.3 43.37L32.45 42.5L32.72 41.65L33.12 40.84L33.54 40.2L34.04 39.61L34.61 39.1L35.24 38.66L35.92 38.3L36.05 38.21L36.09 38.09L36.04 37.96L35.89 37.85L35.62 37.76L34.6 37.67L33.59 37.8L32.65 38.14ZM48.16 36.79L48.09 36.99L48.06 37.03L47.95 37.33L47.82 37.62L47.66 37.89L47.49 38.16L46.77 39.02L45.93 39.74L44.97 40.3L43.91 40.69L42.98 40.87L42.03 40.9L41.08 40.78L40.17 40.51L39.97 40.5L39.85 40.6L39.85 40.81L39.99 41.1L40.84 42.06L41.9 42.74L43.1 43.11L44.37 43.14L45.59 42.9L46.68 42.34L47.57 41.5L48.2 40.43L48.44 39.68L48.59 38.9L48.63 38.11L48.58 37.32L48.58 37.05L48.49 36.72L48.37 36.61L48.25 36.64L48.16 36.79ZM30.3 34.71L29.41 35.55L28.78 36.62L28.54 37.36L28.4 38.13L28.36 38.9L28.41 39.68L28.41 39.95L28.5 40.28L28.62 40.4L28.74 40.37L28.83 40.22L28.9 40.01L29.01 39.72L29.14 39.43L29.29 39.16L29.46 38.89L29.49 38.93L30.21 38.07L31.06 37.35L32.02 36.79L33.08 36.41L34.02 36.22L34.96 36.19L35.91 36.31L36.83 36.57L37.02 36.59L37.13 36.49L37.14 36.29L37 35.99L36.15 35.02L35.1 34.33L33.89 33.94L32.61 33.89L31.39 34.14L30.3 34.71ZM44.13 30.48L44.21 30.67L44.34 30.96L44.45 31.26L44.54 31.56L44.61 31.88L44.6 31.87L44.7 32.98L44.61 34.09L44.32 35.17L43.85 36.18L43.32 36.98L42.67 37.68L41.92 38.26L41.08 38.73L40.94 38.85L40.92 39L41.07 39.16L41.38 39.27L42.66 39.35L43.89 39.09L45.01 38.51L45.95 37.63L46.65 36.59L47.02 35.43L47.06 34.2L46.75 33L46.38 32.29L45.93 31.64L45.41 31.06L44.81 30.54L44.6 30.37L44.31 30.2L44.14 30.19L44.08 30.31L44.13 30.48ZM37.03 28.43L37.08 28.46L36.75 28.55L36.63 28.67L36.67 28.79L36.82 28.88L37.02 28.94L37.32 29.05L37.6 29.19L37.88 29.34L38.15 29.51L39.01 30.23L39.73 31.08L40.29 32.05L40.68 33.1L40.86 34.04L40.89 34.99L40.77 35.93L40.5 36.85L40.48 37.04L40.58 37.16L40.79 37.17L41.09 37.02L42.04 36.17L42.72 35.11L43.09 33.91L43.13 32.64L42.89 31.41L42.33 30.33L41.49 29.43L40.41 28.8L39.66 28.56L38.88 28.41L38.09 28.37L37.3 28.43L37.03 28.43ZM32.27 30.59L31.62 31.04L31.03 31.57L30.51 32.17L30.34 32.38L30.34 32.4L30.17 32.69L30.16 32.86L30.27 32.92L30.44 32.87L30.63 32.78L30.92 32.65L31.22 32.54L31.53 32.45L31.84 32.38L32.96 32.28L34.06 32.37L35.14 32.64L36.15 33.11L36.94 33.64L37.64 34.29L38.22 35.04L38.69 35.88L38.8 36.03L38.96 36.04L39.11 35.9L39.22 35.59L39.3 34.31L39.05 33.08L38.47 31.96L37.6 31.02L36.57 30.33L35.4 29.96L34.18 29.92L32.98 30.23L32.27 30.59Z" id="a5gMJq9F6E"></path>
<path fill="#38387c" d="M41.65 0.13L43.2 0.29L44.74 0.51L46.25 0.79L47.74 1.12L49.21 1.52L50.66 1.97L52.08 2.48L53.47 3.03L54.84 3.65L56.18 4.31L57.49 5.02L58.76 5.78L60.01 6.59L61.22 7.44L62.4 8.34L63.54 9.28L64.64 10.26L65.7 11.29L66.73 12.35L67.71 13.45L68.65 14.59L69.55 15.77L70.41 16.98L71.21 18.23L71.97 19.5L72.68 20.81L73.35 22.15L73.96 23.52L74.52 24.91L75.02 26.33L75.47 27.78L75.87 29.25L76.2 30.74L76.48 32.25L76.7 33.79L76.86 35.34L76.96 36.91L77 38.5L76.96 40.08L76.87 41.65L76.71 43.21L76.49 44.74L76.21 46.25L75.88 47.75L75.48 49.22L75.03 50.66L74.53 52.09L73.97 53.48L73.36 54.85L72.7 56.19L71.99 57.5L71.23 58.78L70.42 60.02L69.57 61.23L68.67 62.41L67.73 63.55L66.74 64.65L65.72 65.72L64.65 66.74L63.55 67.73L62.41 68.67L61.23 69.57L60.02 70.42L58.78 71.23L57.5 71.99L56.19 72.7L54.85 73.36L53.48 73.97L52.09 74.53L50.66 75.03L49.22 75.48L47.75 75.88L46.25 76.21L44.74 76.49L43.21 76.71L41.65 76.87L40.08 76.96L38.5 77L36.91 76.96L35.34 76.87L33.79 76.71L32.25 76.49L30.74 76.21L29.24 75.88L27.77 75.48L26.33 75.03L24.91 74.53L23.51 73.97L22.14 73.36L20.8 72.7L19.49 71.99L18.22 71.23L16.97 70.42L15.76 69.57L14.58 68.67L13.44 67.73L12.34 66.74L11.27 65.72L10.25 64.65L9.26 63.55L8.32 62.41L7.42 61.23L6.57 60.02L5.76 58.78L5 57.5L4.29 56.19L3.63 54.85L3.02 53.48L2.46 52.09L1.96 50.66L1.51 49.22L1.11 47.75L0.78 46.25L0.5 44.74L0.28 43.21L0.12 41.65L0.03 40.08L0 38.5L0.03 36.91L0.12 35.34L0.28 33.79L0.5 32.25L0.78 30.74L1.11 29.24L1.51 27.77L1.96 26.33L2.46 24.91L3.02 23.51L3.63 22.14L4.29 20.8L5 19.49L5.76 18.22L6.57 16.97L7.42 15.76L8.32 14.58L9.26 13.44L10.25 12.34L11.27 11.27L12.34 10.25L13.44 9.26L14.58 8.32L15.76 7.42L16.97 6.57L18.22 5.76L19.49 5L20.8 4.29L22.14 3.63L23.51 3.02L24.91 2.46L26.33 1.96L27.77 1.51L29.24 1.11L30.74 0.78L32.25 0.5L33.79 0.28L35.34 0.12L36.91 0.03L38.5 0L40.08 0.03L41.65 0.13ZM74 43.14L73.93 43.26L73.85 43.4L73.75 43.59L73.63 43.8L73.51 44.03L73.36 44.29L73.21 44.56L73.04 44.85L72.87 45.15L72.67 45.46L72.47 45.78L72.25 46.09L72.02 46.4L71.78 46.7L71.53 47L71.27 47.3L71 47.59L70.72 47.87L70.43 48.16L70.11 48.44L69.78 48.72L69.43 49.01L69.05 49.29L68.65 49.57L68.21 49.85L67.75 50.14L67.26 50.43L66.73 50.72L66.16 51.01L65.55 51.31L64.9 51.61L64.21 51.92L63.47 52.23L62.68 52.55L61.84 52.88L61.01 53.21L60.24 53.57L59.53 53.93L58.87 54.31L58.26 54.71L57.69 55.13L57.16 55.57L56.67 56.02L56.21 56.5L55.77 57L55.35 57.52L54.95 58.06L54.56 58.63L54.18 59.22L53.8 59.84L53.41 60.48L53.02 61.15L52.61 61.86L52.19 62.59L51.74 63.35L51.27 64.14L50.76 64.94L50.22 65.7L49.64 66.44L49.03 67.14L48.4 67.82L47.74 68.46L47.06 69.07L46.37 69.64L45.66 70.19L44.94 70.69L44.22 71.17L43.49 71.6L42.77 72L42.04 72.37L41.33 72.69L40.63 72.98L39.94 73.22L39.27 73.43L38.62 73.6L37.99 73.72L37.4 73.81L37.43 73.81L36.88 73.87L36.42 73.93L36.03 73.98L35.7 74.03L35.45 74.07L35.26 74.11L35.13 74.15L35.06 74.19L35.04 74.22L35.08 74.24L35.16 74.27L35.29 74.29L35.47 74.31L35.68 74.32L35.92 74.34L36.2 74.35L36.51 74.35L36.85 74.36L37.21 74.36L37.59 74.37L37.99 74.37L39.53 74.36L41.06 74.28L42.58 74.14L44.09 73.93L45.59 73.66L47.07 73.33L48.53 72.94L49.97 72.49L51.39 71.97L52.78 71.4L54.15 70.77L55.49 70.09L56.81 69.34L58.09 68.54L59.34 67.69L60.55 66.78L61.73 65.82L62.87 64.81L63.97 63.75L65.02 62.64L66.04 61.47L66.64 60.74L67.23 60L67.79 59.24L68.34 58.46L68.86 57.68L69.36 56.88L69.83 56.07L70.29 55.24L70.72 54.41L71.13 53.56L71.52 52.7L71.89 51.83L72.23 50.96L72.55 50.07L72.84 49.18L73.11 48.27L73.36 47.36L73.58 46.44L73.78 45.52L73.95 44.59L74.1 43.65L74.13 43.41L74.15 43.24L74.15 43.12L74.13 43.05L74.11 43.04L74.06 43.07L74 43.14ZM2.76 41.29L2.75 41.43L2.76 41.6L2.77 41.79L2.79 42L2.81 42.21L2.84 42.42L2.86 42.61L2.89 42.77L2.91 42.9L2.92 42.99L2.93 43.02L2.94 43.09L2.97 43.28L3.03 43.6L3.11 44.03L3.21 44.55L3.33 45.16L3.48 45.84L3.66 46.6L3.85 47.4L4.07 48.25L4.32 49.14L4.59 50.05L4.89 50.97L5.22 51.89L5.57 52.81L5.94 53.7L6.35 54.57L6.78 55.39L7.24 56.17L7.98 57.3L8.73 58.38L9.48 59.42L10.24 60.42L11.01 61.37L11.79 62.27L12.59 63.15L13.4 63.98L14.22 64.78L15.07 65.54L15.93 66.27L16.82 66.98L17.73 67.66L18.67 68.31L19.63 68.93L20.63 69.54L21.65 70.12L22.71 70.69L23.8 71.24L24.89 71.71L25.95 72.03L26.96 72.21L27.94 72.28L28.87 72.24L29.76 72.11L30.6 71.9L31.39 71.62L32.14 71.29L32.83 70.91L33.47 70.51L34.05 70.09L34.57 69.67L35.03 69.27L35.43 68.89L35.77 68.54L36.04 68.25L36.24 68.02L36.38 67.87L36.5 67.7L36.5 67.59L36.39 67.53L36.15 67.5L35.8 67.5L35.33 67.51L34.74 67.53L34.05 67.53L33.24 67.5L32.33 67.44L31.31 67.33L30.18 67.16L28.95 66.91L27.62 66.58L26.19 66.14L24.66 65.6L23.04 64.93L21.31 64.13L19.5 63.17L17.74 62.12L16.11 60.98L14.6 59.78L13.21 58.52L11.93 57.22L10.76 55.9L9.7 54.57L8.74 53.23L7.88 51.91L7.11 50.62L6.43 49.38L5.82 48.19L5.3 47.06L4.85 46.03L4.47 45.09L4.16 44.26L3.9 43.55L3.7 42.98L3.55 42.57L3.54 42.59L3.35 42.1L3.2 41.73L3.07 41.46L2.97 41.28L2.89 41.18L2.83 41.16L2.79 41.2L2.76 41.29ZM42.05 24.48L41.08 24.54L40.11 24.62L39.14 24.73L38.17 24.86L37.2 25L36.24 25.16L35.27 25.34L34.31 25.54L33.36 25.75L32.41 25.98L31.46 26.22L30.53 26.47L29.6 26.74L28.68 27.02L27.77 27.3L26.88 27.6L25.99 27.9L25.12 28.21L24.26 28.53L23.41 28.86L22.58 29.18L21.77 29.52L20.97 29.85L20.2 30.19L19.44 30.53L18.7 30.87L17.98 31.2L17.56 31.41L17.15 31.61L16.73 31.81L16.3 32.01L15.88 32.2L15.46 32.39L15.03 32.58L14.6 32.77L14.18 32.95L13.75 33.13L13.32 33.3L12.89 33.48L12.45 33.65L12.02 33.82L11.59 33.98L11.15 34.15L10.71 34.31L10.28 34.46L9.84 34.62L9.4 34.77L8.96 34.92L8.52 35.06L8.07 35.2L7.63 35.34L7.18 35.48L6.74 35.61L6.29 35.74L5.85 35.87L5.4 35.99L4.95 36.12L4.5 36.23L4.32 36.28L4.16 36.32L4.01 36.36L3.87 36.39L3.74 36.43L3.62 36.46L3.51 36.49L3.41 36.52L3.33 36.55L3.25 36.59L3.19 36.62L3.14 36.65L3.09 36.69L3.06 36.73L3.04 36.77L3.03 36.82L3.03 36.87L3.04 36.92L3.05 36.98L3.08 37.05L3.12 37.12L3.17 37.2L3.22 37.28L3.29 37.37L3.36 37.47L3.45 37.58L3.54 37.7L3.64 37.83L3.75 37.96L3.87 38.11L4 38.27L4.38 38.8L4.78 39.32L5.19 39.84L5.6 40.34L6.03 40.84L6.46 41.32L6.91 41.8L7.36 42.26L7.82 42.72L8.3 43.16L8.78 43.6L9.27 44.03L9.76 44.44L10.27 44.85L10.78 45.24L11.31 45.63L11.84 46L12.37 46.36L12.92 46.72L13.47 47.06L14.03 47.39L14.6 47.7L15.17 48.01L15.75 48.31L16.34 48.59L16.93 48.86L17.53 49.12L18.13 49.37L18.74 49.6L19.36 49.83L19.98 50.04L21.29 50.47L22.58 50.87L23.85 51.22L25.09 51.53L26.31 51.8L27.51 52.03L28.69 52.22L29.86 52.38L31 52.5L32.13 52.58L33.25 52.62L34.35 52.64L35.44 52.61L36.51 52.56L37.58 52.48L38.63 52.36L39.68 52.22L40.72 52.05L41.76 51.85L42.78 51.62L43.81 51.37L44.83 51.1L45.85 50.8L46.87 50.47L47.88 50.13L48.9 49.76L49.93 49.38L50.95 48.98L51.98 48.56L53.02 48.12L54.06 47.66L55.18 47.17L56.27 46.7L57.32 46.25L58.33 45.82L59.31 45.41L60.25 45.02L61.16 44.65L62.03 44.3L62.86 43.97L63.66 43.66L64.43 43.37L65.16 43.09L65.85 42.83L66.52 42.59L67.15 42.36L67.74 42.15L68.31 41.96L68.84 41.78L69.34 41.61L69.81 41.46L70.24 41.32L70.65 41.19L71.02 41.07L71.37 40.97L71.68 40.88L71.96 40.79L72.22 40.72L72.44 40.66L72.64 40.61L72.8 40.57L72.94 40.53L72.94 40.5L73.07 40.47L73.19 40.45L73.3 40.42L73.42 40.4L73.52 40.37L73.62 40.34L73.71 40.3L73.78 40.26L73.85 40.21L73.9 40.15L73.93 40.08L73.95 40L73.95 39.91L73.93 39.81L73.89 39.69L73.83 39.55L73.75 39.4L73.64 39.22L73.5 39.03L73.33 38.81L73.14 38.58L72.91 38.31L72.65 38.03L72.36 37.71L72.03 37.37L71.67 37L71.26 36.59L70.82 36.16L70.34 35.69L69.81 35.19L69.24 34.65L68.63 34.06L68.01 33.48L67.37 32.92L66.73 32.38L66.07 31.86L65.39 31.35L64.71 30.86L64.02 30.38L63.32 29.92L62.6 29.48L61.88 29.06L61.15 28.65L60.4 28.26L59.65 27.89L58.9 27.54L58.13 27.21L57.35 26.89L56.57 26.59L55.78 26.32L54.99 26.05L54.18 25.81L53.38 25.59L52.56 25.39L51.74 25.2L50.92 25.04L50.09 24.89L49.25 24.77L48.42 24.66L47.57 24.57L46.73 24.51L45.88 24.46L44.93 24.43L43.97 24.42L43.01 24.44L42.05 24.48ZM47.24 4.9L46.4 5.12L45.61 5.4L44.86 5.73L44.17 6.11L43.54 6.51L42.96 6.92L42.44 7.34L41.97 7.75L41.57 8.13L41.24 8.47L40.96 8.77L40.76 8.99L40.62 9.14L40.44 9.37L40.4 9.52L40.48 9.61L40.69 9.65L41.03 9.67L41.5 9.66L42.08 9.65L42.78 9.64L43.6 9.65L44.53 9.7L45.57 9.79L46.71 9.94L47.96 10.17L49.31 10.48L50.76 10.9L52.3 11.42L53.94 12.08L55.67 12.87L57.48 13.82L59.24 14.87L60.87 16.01L62.38 17.21L63.77 18.46L65.05 19.75L66.21 21.06L67.27 22.39L68.23 23.71L69.09 25.02L69.86 26.3L70.54 27.54L71.14 28.72L71.66 29.83L72.1 30.86L72.48 31.8L72.79 32.62L73.05 33.32L73.24 33.89L73.39 34.3L73.59 34.82L73.75 35.19L73.88 35.44L73.98 35.57L74.05 35.59L74.1 35.53L74.12 35.38L74.13 35.18L74.11 34.92L74.09 34.63L74.05 34.31L74.01 33.97L73.96 33.65L73.92 33.33L73.87 33.04L73.83 32.8L73.8 32.6L73.77 32.48L73.77 32.44L73.76 32.38L73.73 32.22L73.69 31.96L73.62 31.6L73.54 31.17L73.43 30.66L73.3 30.08L73.15 29.45L72.98 28.76L72.78 28.03L72.56 27.27L72.3 26.48L72.03 25.67L71.72 24.84L71.39 24.02L71.02 23.19L70.63 22.39L70.2 21.6L69.74 20.83L69 19.7L68.26 18.62L67.51 17.58L66.75 16.59L65.99 15.64L65.21 14.73L64.42 13.86L63.61 13.03L62.79 12.23L61.94 11.47L61.08 10.74L60.2 10.03L59.29 9.36L58.35 8.71L57.39 8.08L56.39 7.47L55.37 6.89L54.31 6.32L53.21 5.77L52.12 5.3L51.06 4.98L50.04 4.8L49.07 4.73L48.13 4.77L47.24 4.9ZM35.93 2.73L34.4 2.87L32.89 3.07L31.4 3.33L29.92 3.66L28.45 4.05L27.01 4.51L25.59 5.02L24.19 5.59L22.82 6.21L21.48 6.9L20.16 7.64L18.88 8.44L17.62 9.29L16.41 10.2L15.23 11.16L14.09 12.17L12.99 13.23L11.93 14.34L10.91 15.51L10.31 16.24L9.72 16.99L9.16 17.75L8.62 18.52L8.1 19.31L7.6 20.11L7.12 20.92L6.67 21.75L6.23 22.59L5.82 23.44L5.44 24.29L5.07 25.16L4.73 26.04L4.42 26.93L4.12 27.83L3.86 28.73L3.61 29.64L3.39 30.56L3.19 31.49L3.02 32.42L2.88 33.36L2.85 33.6L2.83 33.78L2.83 33.9L2.84 33.96L2.87 33.98L2.92 33.95L2.97 33.87L3.05 33.76L3.13 33.61L3.23 33.43L3.35 33.22L3.47 32.98L3.61 32.73L3.77 32.45L3.93 32.16L4.11 31.86L4.31 31.55L4.51 31.24L4.73 30.92L4.96 30.61L5.2 30.31L5.45 30.01L5.71 29.72L5.98 29.43L6.26 29.14L6.56 28.85L6.87 28.57L7.2 28.29L7.55 28.01L7.93 27.72L8.34 27.44L8.77 27.16L9.23 26.87L9.72 26.59L10.26 26.3L10.82 26L11.43 25.7L12.08 25.4L12.77 25.09L13.51 24.78L14.3 24.46L15.14 24.13L15.97 23.8L16.74 23.45L17.46 23.08L18.11 22.7L18.72 22.3L19.29 21.88L19.81 21.44L20.31 20.99L20.77 20.51L21.2 20.01L21.62 19.49L22.02 18.95L22.41 18.38L22.79 17.79L23.17 17.17L23.56 16.52L23.95 15.85L24.36 15.15L24.78 14.41L25.22 13.65L25.69 12.86L26.2 12.07L26.74 11.3L27.32 10.56L27.93 9.86L28.56 9.19L29.22 8.55L29.89 7.94L30.59 7.36L31.29 6.82L32.01 6.31L32.73 5.84L33.46 5.41L34.19 5.01L34.91 4.64L35.62 4.32L36.32 4.03L37.01 3.79L37.68 3.58L38.33 3.41L38.96 3.29L39.55 3.2L40.1 3.14L40.57 3.08L40.96 3.03L41.28 2.98L41.54 2.93L41.73 2.89L41.85 2.86L41.93 2.82L41.94 2.79L41.91 2.76L41.82 2.74L41.69 2.72L41.52 2.7L41.31 2.69L41.06 2.67L40.78 2.66L40.47 2.66L40.14 2.65L39.78 2.65L39.4 2.64L39 2.64L37.46 2.65L35.93 2.73Z"></path></svg>
