<?xml version="1.0" encoding="utf-8"?>
<!-- Generator: Adobe Illustrator 21.0.0, SVG Export Plug-In . SVG Version: 6.00 Build 0)  -->
<svg version="1.1" id="Слой_1" xmlns="http://www.w3.org/2000/svg" xmlns:xlink="http://www.w3.org/1999/xlink" x="0px" y="0px"
	 viewBox="0 0 71.6 71.6" style="enable-background:new 0 0 71.6 71.6;" xml:space="preserve">
<style type="text/css">
	.st0{fill:#FFFFFF;}
</style>
<g>
	<g>
		<path class="st0" d="M35.8,71.6C16.1,71.6,0,55.5,0,35.8C0,16.1,16.1,0,35.8,0c19.7,0,35.8,16.1,35.8,35.8
			C71.6,55.5,55.5,71.6,35.8,71.6z M35.8,1C16.6,1,1,16.6,1,35.8C1,55,16.6,70.6,35.8,70.6S70.6,55,70.6,35.8C70.6,16.6,55,1,35.8,1
			z"/>
	</g>
	<g>
		<path class="st0" d="M29.4,51.4V21.7l21.8,14.8L29.4,51.4z M30.4,23.6v25.8l19-12.9L30.4,23.6z"/>
	</g>
</g>
</svg>
