<svg xmlns="http://www.w3.org/2000/svg" width="213" height="42" style=""><path fill="#38387c" d="M37.019394807592576,28.27323190812091 V9.725581231362344 H46.75966601447648 v2.7178735645151164 H40.486520003406454 v4.664458685046213 h5.7736449235375185 v2.7178735645151164 H40.486520003406454 v5.700188881253325 h6.2731460110700255 V28.27323190812091 z" id="svg_17"/><path fill="#38387c" d="M60.929336571097174,28.27323190812091 V9.725581231362344 h7.213383352307687 a4.282487265168413,4.282487265168413 0 0 1 3.5773092592401667,2.1008428093279012 c0.7933252566692778,1.2854807399733659 1.0136933835218542,3.334904319702332 1.0136933835218542,6.398021282953153 c0,3.6728021142096168 0,7.8818333370938385 -2.842748836398244,9.549285496945004 a5.08315812606611,5.08315812606611 0 0 1 -2.5636158757183116,0.49215548330408937 zm4.965628458411402,-2.7178735645151164 c3.085153775936078,0 3.2834850901033974,-1.6307241387090705 3.2834850901033974,-6.985669621226691 c0,-4.40736253705154 -0.4480818579335735,-6.104197113816383 -2.519542250347797,-6.104197113816383 h-2.269791706581543 V25.53332153092053 z" id="svg_18"/><path fill="#38387c" d="M106.89812783254474,40.16576515393165 h-0.49215548330408937 V39.29163825074976 h0 a1.2928263442017853,1.2928263442017853 0 0 1 -1.329554365343882,0.9990021750650158 c-1.7262169936785199,0 -1.8510922655616469,-1.7115257852216814 -1.8510922655616469,-3.0704625674792396 s0.24240493953783498,-2.9382416913676934 1.9172027036174204,-2.9382416913676934 a1.6160329302522323,1.6160329302522323 0 0 1 1.7188713894501007,1.7996730359627122 h-0.6464131721008926 c0,-0.734560422841923 -0.3085153775936082,-1.2046790934607543 -1.0430758004355312,-1.2193703019175928 c-1.2634439272881084,0 -1.2781351357449469,1.4323928245417508 -1.2781351357449469,2.416703791149928 s-0.05141922959893472,2.416703791149928 1.0944950300344658,2.4681230207488625 s1.2928263442017853,-1.0430758004355312 1.2928263442017853,-1.9539307247595161 h-1.2928263442017853 v-0.5803027340451199 h1.9245483078458392 z" id="svg_19"/><path fill="#38387c" d="M124.25579062429938,40.11434592433272 h-0.6390675678724735 V34.33335539656678 h1.4691208456838467 c1.2193703019175928,0 1.9833131416731933,0.31586098182202754 1.9465851205310971,1.6527609513943275 A1.2340615103744317,1.2340615103744317 0 0 1 125.9012059714653,37.24221467102079 v0 c0.734560422841923,0.06611043805577324 0.9402373412376613,0.3085153775936082 1.0283845919786927,1.072458217349208 c0,0.433390649476735 0.06611043805577324,0.8594356947250503 0.12487527188312707,1.2928263442017853 c0,0.10283845919786933 0.06611043805577324,0.35993460719254267 0.22036812685257726,0.35993460719254267 v0.13222087611154623 h-0.734560422841923 a5.354945482517621,5.354945482517621 0 0 1 -0.20567691839573862,-1.4691208456838467 c0,-0.5729571298167001 -0.23505933530941572,-1.0577670088923696 -0.9916565708365965,-1.0577670088923696 h-1.1165318427197235 zm0,-3.1292274013065935 h1.0136933835218542 a0.9916565708365965,0.9916565708365965 0 0 0 1.1165318427197235,-1.0651126131207889 c0,-0.9990021750650158 -0.7933252566692778,-1.0210389877502735 -1.2267159061460124,-1.0210389877502735 h-0.9035093200955656 z" id="svg_20"/><path fill="#38387c" d="M145.47724124020257,34.21582572891207 c1.6894889725364244,0 1.9025114951605815,1.5572680964248777 1.8951658909321623,2.886822461768759 c0,1.6086873260238121 -0.21302252262415786,3.1586098182202704 -1.9098570993890007,3.1586098182202704 S143.57472974504196,38.703989912476224 143.53065611967145,37.08795698222399 C143.53065611967145,35.76574822110853 143.75102424652405,34.21582572891207 145.47724124020257,34.21582572891207 zm0,0.5803027340451199 c-0.9916565708365965,0 -1.2340615103744317,1.035730196207112 -1.2267159061460124,2.328556540408897 c0,1.674797764079586 0.17629450148206172,2.5636158757183116 1.241407114602851,2.5636158757183116 s1.2340615103744317,-0.8888181116387277 1.241407114602851,-2.5636158757183116 C146.711302750577,35.824513054935885 146.46889781103914,34.78878285872877 145.44051321906045,34.78878285872877 z" id="svg_21"/><path fill="#38387c" d="M163.87797983239273,34.33335539656678 h0.6390675678724735 v4.157611993285286 c0,0.462773066390412 0.07345604228419236,1.1899878850039158 1.0944950300344658,1.1899878850039158 s1.101840634262885,-0.734560422841923 1.0944950300344658,-1.1899878850039158 V34.33335539656678 h0.6390675678724735 v4.40736253705154 c0,1.0283845919786927 -0.6831411932429892,1.5352312837396198 -1.733562597906939,1.5352312837396198 s-1.7409082021353586,-0.4995010875325086 -1.7409082021353586,-1.5352312837396198 z" id="svg_22"/><path fill="#38387c" d="M184.0710458563172,40.11434592433272 V34.33335539656678 h1.5205400752827811 a1.968621933216355,1.968621933216355 0 0 1 1.351591178029139,0.374625815649381 a1.638069742937489,1.638069742937489 0 0 1 0.4701186706188313,1.2340615103744317 a1.5499224921964583,1.5499224921964583 0 0 1 -0.8153620693545349,1.5499224921964583 a4.3559433074526055,4.3559433074526055 0 0 1 -1.4691208456838467,0.17629450148206172 h-0.3893170241062198 v2.453431812292024 zm0.6390675678724735,-3.0337345463371435 h0.6243763594156351 c0.8814725074103087,0 1.4177016160849125,-0.13222087611154623 1.4177016160849125,-1.1238774469481427 S186.135160644503,34.88427571369822 185.40060022166108,34.88427571369822 h-0.6684499847861508 z" id="svg_23"/><rect fill="#38387c" x="86.73444222309661" y="0" width="1.0357302261995756" height="41.55408327012992" id="svg_24"/><path fill="#38387c" d="M16.650034282186038,12.443454795877463 h-2.5709614799467317 v5.1419229598934635 h2.7178735645151164 c1.131223051176562,-0.07345604228419236 2.0200411628152892,-0.808016465126116 2.0200411628152892,-2.6664543349161822 C18.816987529569708,12.847463028440519 17.92082381370256,12.465491608562717 16.650034282186038,12.443454795877463 z" id="svg_25"/><path fill="#38387c" d="M15.78325298323257,3.467126428749156 A15.785703486872931,15.785703486872931 0 1 0 31.57630207433392,19.25282991562209 A15.793049091101352,15.793049091101352 0 0 0 15.78325298323257,3.467126428749156 zM22.996636335540252,28.27323190812091 H19.19161334521909 c-0.4186994410198966,-1.1826422807754966 -0.3452433987357043,-3.459779591585459 -0.374625815649381,-4.686495497731473 s0,-2.6958367518298587 -1.1826422807754966,-3.0484257547939824 a10.702545360806823,10.702545360806823 0 0 0 -2.9382416913676934,-0.24240493953783498 h-0.6170307551872157 V28.27323190812091 H10.619293210653849 V9.725581231362344 H17.18626339086064 c2.989660920966628,0 5.259452627548171,1.0430758004355312 5.259452627548171,4.4514361624220555 c0,2.0200411628152892 -0.5141922959893458,4.142920784828449 -2.835403232169825,4.473472975107313 V18.723946411175906 c2.049423579728966,0.2717873564515117 2.6664543349161822,1.5866505133385547 2.6664543349161822,3.364286736616009 c0,0.734560422841923 -0.09549285496945012,5.310871857147106 0.734560422841923,5.876483382735387 z" id="svg_26"/><path fill="#38387c" d="M105.79628719828186,28.27323190812091 h-3.459779591585459 V9.725581231362344 h5.509203171314425 l1.8510922655616469,8.594356947250503 a41.642230370908635,41.642230370908635 0 0 1 0.6390675678724735,4.275141660939994 h0.05141922959893472 a40.33471281825001,40.33471281825001 0 0 1 0.5435747129030236,-4.275141660939994 l1.8510922655616469,-8.594356947250503 h5.479820754400748 V28.27323190812091 h-3.459779591585459 V22.396748525385522 c0,-3.6728021142096168 0.07345604228419236,-7.3456042284192336 0.3011697733651892,-11.01840634262885 h-0.05141922959893472 l-3.6728021142096168,16.894889725364237 h-2.1008428093279012 l-3.6287284888391023,-16.894889725364237 h-0.12487527188312707 c0.22771373108099643,3.6728021142096168 0.3011697733651892,7.3456042284192336 0.3011697733651892,11.01840634262885 z" id="svg_27"/><path fill="#38387c" d="M132.83545636309304,28.27323190812091 V9.725581231362344 h9.732925602655484 v2.7178735645151164 h-6.2731460110700255 v4.664458685046213 H142.0615352739876 v2.7178735645151164 h-5.788336131994356 v5.700188881253325 h6.2731460110700255 V28.27323190812091 z" id="svg_28"/><path fill="#38387c" d="M156.75274373082607,28.27323190812091 V9.725581231362344 h7.213383352307687 a4.282487265168413,4.282487265168413 0 0 1 3.5846548634685864,2.1008428093279012 c0.7933252566692778,1.2854807399733659 1.0136933835218542,3.334904319702332 1.0136933835218542,6.398021282953153 c0,3.6728021142096168 0,7.8818333370938385 -2.842748836398244,9.549285496945004 a5.08315812606611,5.08315812606611 0 0 1 -2.5709614799467317,0.49215548330408937 zm4.965628458411402,-2.7178735645151164 c3.085153775936078,0 3.2834850901033974,-1.6307241387090705 3.2834850901033974,-6.985669621226691 c0,-4.40736253705154 -0.4480818579335735,-6.104197113816383 -2.519542250347797,-6.104197113816383 H160.2051777181831 V25.53332153092053 z" id="svg_29"/><path fill="#38387c" d="M183.12346291085112,28.27323190812091 V9.725581231362344 h3.4524339873570398 V28.27323190812091 z" id="svg_30"/><path fill="#38387c" d="M199.87144055164697,28.27323190812091 l4.40736253705154,-18.525613864073307 h4.6718042892746325 L213.1596386008574,28.27323190812091 h-3.6728021142096168 l-0.9182005285524045,-4.686495497731473 H204.4991712155511 L203.58097068699868,28.27323190812091 zm5.1419229598934635,-7.411714666475007 h2.9382416913676934 l-0.9402373412376613,-5.2667982317765905 c-0.17629450148206172,-0.8667812989534697 -0.24240493953783498,-1.7041801809932624 -0.3452433987357043,-2.5636158757183116 c0,-0.4186994410198966 -0.07345604228419236,-0.8447444862682119 -0.12487527188312707,-1.241407114602851 h-0.04407362537051545 c-0.05141922959893472,0.39666262833463894 -0.10283845919786933,0.8153620693545349 -0.12487527188312707,1.241407114602851 c-0.09549285496945012,0.8594356947250503 -0.17629450148206172,1.6968345767648432 -0.3452433987357043,2.5636158757183116 z" id="svg_31"/></svg>
